<svg width="169" height="194" viewBox="0 0 169 194" fill="none" xmlns="http://www.w3.org/2000/svg">
<g clip-path="url(#clip0_56_2977)">
<path d="M159.123 158.078C158.79 157.517 157.351 158.117 157.086 157.609C156.822 157.102 158.16 156.33 158.924 154.566C159.061 154.248 159.93 152.244 159.287 151.625C158.069 150.453 152.493 155.291 150.542 153.708C150.114 153.36 149.815 152.667 148.519 151.541C148.003 151.093 147.691 150.89 147.39 150.966C146.962 151.072 146.928 151.645 146.469 152.77C145.78 154.457 145.373 154.355 144.972 155.702C144.674 156.701 144.742 157.282 144.392 157.395C143.896 157.556 143.439 156.496 142.811 156.59C142.17 156.687 141.782 157.922 141.66 158.846C141.43 160.58 142.068 161.724 142.421 162.928C142.805 164.235 143.033 166.224 142.146 169.039L133.367 193.744C135.305 188.675 140.917 174.778 143.275 169.614C143.956 168.124 144.707 166.611 146.251 166.015C147.737 165.44 149.777 165.783 152.379 165.157C152.683 165.084 153.526 164.87 153.632 164.375C153.72 163.965 153.224 163.736 153.3 163.353C153.402 162.839 154.377 162.832 155.576 162.239C156.421 161.82 156.947 161.322 157.4 160.894C157.537 160.765 159.566 158.823 159.123 158.078Z" fill="#F2F2F2"/>
<path d="M124.584 171.083C124.212 171.084 124.092 171.963 123.766 171.946C123.44 171.929 123.447 171.051 122.801 170.167C122.684 170.008 121.95 169.004 121.46 169.141C120.533 169.4 121.301 173.529 119.96 174.028C119.666 174.138 119.239 174.085 118.312 174.395C117.943 174.518 117.754 174.613 117.703 174.782C117.632 175.023 117.904 175.205 118.324 175.755C118.955 176.579 118.787 176.749 119.333 177.334C119.738 177.769 120.044 177.903 119.998 178.107C119.934 178.397 119.281 178.314 119.146 178.65C119.009 178.992 119.504 179.538 119.922 179.865C120.708 180.478 121.455 180.496 122.148 180.67C122.901 180.859 123.944 181.321 125.072 182.568L134.679 193.999C132.747 191.587 127.537 184.826 125.68 182.18C125.144 181.416 124.618 180.612 124.77 179.683C124.916 178.789 125.674 177.887 126.117 176.431C126.169 176.261 126.306 175.786 126.094 175.591C125.918 175.43 125.662 175.607 125.496 175.459C125.273 175.261 125.551 174.781 125.605 174.022C125.643 173.487 125.551 173.085 125.471 172.74C125.447 172.636 125.078 171.081 124.584 171.083Z" fill="#F2F2F2"/>
<path d="M131.992 172.744L131.768 170.749L131.871 170.598C132.344 169.899 132.585 169.216 132.588 168.568C132.588 168.465 132.583 168.361 132.578 168.256C132.559 167.84 132.535 167.323 132.805 166.72C132.957 166.384 133.382 165.606 134.021 165.702C134.193 165.726 134.324 165.805 134.422 165.898C134.437 165.874 134.452 165.851 134.468 165.826C134.667 165.523 134.825 165.393 134.976 165.268C135.093 165.171 135.214 165.072 135.403 164.837C135.486 164.734 135.55 164.643 135.605 164.567C135.77 164.337 135.986 164.063 136.367 164.067C136.774 164.087 136.987 164.423 137.128 164.645C137.381 165.042 137.495 165.328 137.571 165.518C137.598 165.587 137.629 165.665 137.645 165.689C137.777 165.882 138.843 165.702 139.244 165.637C140.147 165.486 140.927 165.356 141.249 165.925C141.479 166.331 141.308 166.868 140.725 167.565C140.543 167.782 140.35 167.946 140.178 168.075C140.32 168.16 140.447 168.29 140.499 168.494C140.621 168.978 140.204 169.462 139.263 169.936C139.029 170.055 138.714 170.213 138.273 170.289C138.065 170.325 137.878 170.333 137.718 170.338C137.714 170.43 137.693 170.531 137.636 170.634C137.471 170.937 137.127 171.082 136.608 171.047C136.037 171.017 135.567 170.908 135.152 170.813C134.79 170.73 134.478 170.66 134.233 170.676C133.779 170.713 133.429 171.076 133.018 171.547L131.992 172.744Z" fill="#F2F2F2"/>
<path d="M133.03 160.867L131.155 161.589L130.982 161.529C130.185 161.249 129.463 161.189 128.834 161.351C128.734 161.377 128.636 161.408 128.535 161.439C128.137 161.563 127.642 161.717 126.99 161.61C126.626 161.549 125.764 161.335 125.695 160.693C125.675 160.52 125.718 160.375 125.783 160.256C125.757 160.248 125.731 160.239 125.702 160.23C125.358 160.115 125.192 159.995 125.032 159.88C124.909 159.792 124.783 159.701 124.507 159.578C124.386 159.524 124.282 159.484 124.195 159.451C123.93 159.349 123.609 159.21 123.517 158.841C123.433 158.443 123.704 158.152 123.884 157.959C124.204 157.615 124.452 157.432 124.617 157.31C124.677 157.266 124.745 157.216 124.764 157.195C124.917 157.019 124.472 156.035 124.307 155.663C123.933 154.83 123.609 154.109 124.077 153.654C124.413 153.328 124.977 153.357 125.799 153.744C126.055 153.865 126.264 154.01 126.432 154.143C126.478 153.984 126.572 153.828 126.756 153.726C127.194 153.486 127.769 153.765 128.467 154.555C128.641 154.751 128.874 155.015 129.059 155.422C129.146 155.614 129.202 155.792 129.247 155.946C129.338 155.926 129.44 155.921 129.555 155.949C129.89 156.032 130.118 156.328 130.216 156.838C130.331 157.397 130.345 157.879 130.358 158.304C130.37 158.675 130.381 158.994 130.459 159.227C130.609 159.656 131.05 159.902 131.61 160.18L133.03 160.867Z" fill="#F2F2F2"/>
<path d="M131.992 154.99L131.768 152.995L131.871 152.844C132.344 152.145 132.585 151.462 132.588 150.814C132.588 150.711 132.583 150.608 132.578 150.503C132.559 150.086 132.535 149.569 132.805 148.966C132.957 148.63 133.382 147.852 134.021 147.948C134.193 147.972 134.324 148.051 134.422 148.144C134.437 148.121 134.452 148.097 134.468 148.072C134.667 147.769 134.825 147.639 134.976 147.514C135.093 147.417 135.214 147.318 135.403 147.083C135.486 146.98 135.55 146.89 135.605 146.813C135.77 146.583 135.986 146.309 136.367 146.314C136.774 146.333 136.987 146.669 137.128 146.891C137.381 147.288 137.495 147.574 137.571 147.764C137.598 147.833 137.629 147.912 137.645 147.936C137.777 148.128 138.843 147.948 139.244 147.883C140.147 147.732 140.927 147.602 141.249 148.171C141.479 148.577 141.308 149.115 140.725 149.811C140.543 150.028 140.35 150.192 140.178 150.321C140.32 150.406 140.447 150.536 140.499 150.74C140.621 151.224 140.204 151.709 139.263 152.182C139.029 152.301 138.714 152.459 138.273 152.535C138.065 152.571 137.878 152.579 137.718 152.584C137.714 152.677 137.693 152.777 137.636 152.88C137.471 153.183 137.127 153.328 136.608 153.293C136.037 153.263 135.567 153.154 135.152 153.059C134.79 152.976 134.478 152.906 134.233 152.922C133.779 152.959 133.429 153.322 133.018 153.793L131.992 154.99Z" fill="#F2F2F2"/>
<path d="M134.036 193.711L133.617 193.449L133.129 193.505C133.121 193.46 133.095 193.355 133.055 193.193C132.836 192.301 132.171 189.586 131.615 185.312C131.227 182.328 131.008 179.26 130.963 176.192C130.917 173.119 131.063 170.793 131.18 168.923C131.268 167.513 131.375 166.171 131.48 164.863C131.76 161.368 132.023 158.067 131.827 154.413C131.784 153.597 131.693 151.899 130.699 150.092C130.123 149.044 129.329 148.113 128.34 147.327L128.955 146.555C130.047 147.424 130.925 148.454 131.565 149.618C132.667 151.621 132.766 153.472 132.814 154.361C133.013 158.08 132.747 161.412 132.464 164.941C132.36 166.244 132.253 167.581 132.165 168.985C132.049 170.837 131.905 173.143 131.95 176.177C131.995 179.208 132.212 182.238 132.594 185.185C133.143 189.405 133.799 192.079 134.014 192.958C134.129 193.427 134.153 193.525 134.036 193.711Z" fill="#F2F2F2"/>
<path d="M126.529 148.895C126.488 148.895 126.447 148.894 126.406 148.891C125.565 148.846 124.786 148.343 124.091 147.397C123.765 146.952 123.598 146.444 123.265 145.432C123.214 145.276 122.963 144.484 122.811 143.395C122.711 142.683 122.723 142.385 122.865 142.122C123.021 141.83 123.275 141.625 123.56 141.488C123.548 141.393 123.558 141.296 123.599 141.197C123.767 140.785 124.215 140.839 124.457 140.865C124.579 140.881 124.732 140.901 124.897 140.892C125.157 140.88 125.296 140.803 125.507 140.687C125.709 140.576 125.96 140.439 126.333 140.363C127.068 140.209 127.684 140.418 127.887 140.486C128.955 140.841 129.481 141.671 130.091 142.631C130.212 142.824 130.629 143.525 130.905 144.486C131.103 145.18 131.075 145.488 131.016 145.717C130.894 146.188 130.607 146.458 129.879 147.053C129.118 147.676 128.736 147.988 128.408 148.178C127.645 148.618 127.165 148.895 126.529 148.895Z" fill="#F2F2F2"/>
<path d="M94.7823 55.2678C97.4541 53.9338 98.9306 51.4757 98.0803 49.7776C97.2301 48.0795 94.3754 47.7846 91.7029 49.1194C90.628 49.638 89.6931 50.4061 88.9764 51.3596L77.7276 57.1544L80.5628 62.3687L91.3511 56.1024C92.5452 56.1019 93.7217 55.8157 94.7823 55.2678Z" fill="#FFB6B6"/>
<path d="M31.0493 190.067L36.4038 190.067L38.9509 169.438L31.0482 169.439L31.0493 190.067Z" fill="#FFB6B6"/>
<path d="M49.3944 189.946C49.5612 190.226 49.6491 191.132 49.6491 191.458C49.6491 192.46 48.8355 193.273 47.8318 193.273H31.2495C30.5648 193.273 30.0097 192.718 30.0097 192.035V191.345C30.0097 191.345 29.1894 189.273 30.8783 186.718C30.8783 186.718 32.9773 188.718 36.1138 185.586L37.0388 183.912L43.734 188.803L47.445 189.259C48.2569 189.359 48.9768 189.243 49.3944 189.946Z" fill="#2F2E41"/>
<path d="M39.4574 167.386L44.2127 169.844L55.9703 152.695L48.9521 149.066L39.4574 167.386Z" fill="#FFB6B6"/>
<path d="M55.8046 175.702C55.8235 176.028 55.485 176.872 55.3349 177.161C54.8734 178.052 53.7768 178.4 52.8854 177.939L38.1597 170.324C37.5517 170.01 37.3139 169.263 37.6287 168.655L37.9461 168.043C37.9461 168.043 38.1716 165.826 40.8473 164.333C40.8473 164.333 41.7906 167.073 46.018 165.731L47.6097 164.67L51.3041 172.087L54.3897 174.197C55.0647 174.658 55.7571 174.886 55.8046 175.702Z" fill="#2F2E41"/>
<path d="M25.6115 26.335H39.6537L39.3473 30.908L48.5045 60.0609L50.2214 79.4962L33.0517 82.3543L25.0392 46.3419L26.7562 29.7647L25.6115 26.335Z" fill="#F4CE14"/>
<path d="M26.47 30.0508L11.5896 37.4819L20.7468 68.3497L19.0298 99.7892C19.0298 99.7892 42.4951 107.22 41.3504 86.0702C40.2058 64.92 40.2058 61.4902 40.2058 61.4902L26.47 30.0508Z" fill="#2F2E41"/>
<path d="M50.2214 33.9011C50.2214 33.9011 53.9415 31.1938 55.6585 35.1952C57.3755 39.1965 68.5358 59.4893 68.5358 59.4893L85.9916 51.7723L88.8533 58.0602C88.8533 58.0602 74.5452 71.7792 65.9603 70.0644C57.3755 68.3495 50.5076 53.4872 50.5076 53.4872L50.2214 33.9011Z" fill="#2F2E41"/>
<path d="M20.7468 94.0729C20.7468 94.0729 20.1745 103.219 21.3191 110.65C22.4638 118.081 30.1901 181.246 30.1901 181.246L39.9196 180.674L40.7781 106.649L54.5139 128.37L42.4951 160.953L50.7938 164.669L68.2496 128.942L56.2308 88.3567L52.7969 78.0674L27.0423 80.9255L20.7468 94.0729Z" fill="#2F2E41"/>
<path d="M59.0925 96.359C59.0925 96.359 43.6397 100.932 40.2058 61.4898L39.4291 29.6875L53.9416 33.4801L52.2246 62.0615L59.0925 96.359Z" fill="#2F2E41"/>
<path d="M32.7656 22.6196C38.4551 22.6196 43.0674 18.0129 43.0674 12.3303C43.0674 6.64768 38.4551 2.04102 32.7656 2.04102C27.076 2.04102 22.4637 6.64768 22.4637 12.3303C22.4637 18.0129 27.076 22.6196 32.7656 22.6196Z" fill="#FFB6B6"/>
<path d="M26.1838 22.3335C26.1838 22.3335 21.6053 17.1889 21.0329 14.9024C20.4606 12.6159 20.4606 6.32801 21.0329 5.75638C21.6053 5.18475 27.9008 -0.531503 30.1901 0.0401205C32.4794 0.611744 37.0173 3.46988 41.0643 3.46988C42.2089 3.46988 42.7812 9.18614 42.7812 9.18614L38.2026 9.75776C38.2026 9.75776 32.4794 6.89963 33.0517 9.75776C33.6241 12.6159 29.0455 12.6159 29.0455 12.6159L29.6178 14.9024L27.9008 15.474L26.7562 13.1875C26.7562 13.1875 27.3285 18.3322 29.0455 20.6187C30.7624 22.9052 26.1838 22.3335 26.1838 22.3335Z" fill="#2F2E41"/>
<path d="M21.6224 104.638C23.193 107.175 25.7771 108.423 27.3938 107.424C29.0106 106.426 29.0476 103.559 27.476 101.021C26.8622 99.9986 26.0121 99.1377 24.9968 98.5106L18.2059 87.8428L13.2617 91.1324L20.4812 101.3C20.5892 102.487 20.9805 103.632 21.6224 104.638Z" fill="#FFB6B6"/>
<path d="M13.8789 37.4814H11.0173C11.0173 37.4814 -0.429177 63.2046 0.143144 68.3493C0.143144 68.3493 0.143144 72.9223 3.00476 76.352C5.86638 79.7818 17.8852 99.2171 17.8852 99.2171L23.0361 95.2157L12.7343 71.2074L19.0298 46.0558L13.8789 37.4814Z" fill="#2F2E41"/>
<path d="M168.682 193.263C168.682 193.446 168.533 193.594 168.35 193.594H0.331038C0.148213 193.594 0 193.446 0 193.263C0 193.081 0.148209 192.933 0.331038 192.933H168.35C168.533 192.933 168.682 193.081 168.682 193.263Z" fill="#E6E6E6"/>
<path d="M106.748 73.2605C105.396 73.2605 104.108 72.7089 103.181 71.7249C97.2138 65.3889 93.9274 57.1096 93.9274 48.4124C93.9274 41.1649 96.1786 34.2454 100.438 28.4017C101.279 27.2473 102.585 26.5227 104.021 26.4141C105.479 26.3019 106.905 26.8354 107.934 27.8728L125.238 45.3311C126.97 47.0783 127.147 49.8677 125.65 51.8193L110.696 71.3151C109.807 72.4736 108.46 73.1803 106.999 73.2541C106.915 73.2583 106.832 73.2605 106.748 73.2605Z" fill="#F4CE14"/>
<path d="M134.32 83.4426C128.985 83.4426 123.865 82.2614 119.103 79.9321C117.374 79.0861 116.129 77.5267 115.688 75.6532C115.248 73.7798 115.667 71.8299 116.838 70.3032L129.3 54.0564C131.567 51.101 131.299 46.8767 128.677 44.2305L115.919 31.3605C114.075 29.5002 113.239 26.9487 113.626 24.3603C114.014 21.7585 115.569 19.5485 117.893 18.2974C123.131 15.4763 129.067 14.0485 135.06 14.1769C153.12 14.5532 168.007 28.9461 168.951 46.9434C169.455 56.5585 166.091 65.6861 159.479 72.6444C152.863 79.6077 143.928 83.4426 134.32 83.4426ZM134.333 15.35C128.784 15.35 130.111 20.6079 125.257 23.222C123.264 24.2948 115.128 22.3041 114.795 24.5344C114.464 26.7511 115.18 28.9365 116.76 30.5299L129.517 43.3999C132.553 46.4631 132.863 51.3531 130.239 54.7745L117.777 71.0212C116.821 72.2662 116.48 73.8559 116.839 75.3834C117.198 76.9105 118.213 78.182 119.623 78.872C124.222 81.1213 129.167 73.209 134.32 73.209C143.601 73.209 152.231 78.5576 158.622 71.8318C165.008 65.1105 168.257 56.2935 167.77 47.0053C166.858 29.6224 152.48 15.7209 135.036 15.3573C134.802 15.3525 134.567 15.35 134.333 15.35Z" fill="#E6E6E6"/>
<path d="M136.593 48.9497C135.92 48.1632 135.583 47.0122 135.583 45.4959C135.583 43.9941 135.92 42.8497 136.593 42.0632C137.267 41.277 138.2 40.8838 139.392 40.8838C140.597 40.8838 141.541 41.277 142.222 42.0632C142.903 42.8497 143.243 43.9941 143.243 45.4959C143.243 47.0122 142.903 48.1632 142.222 48.9497C141.541 49.7361 140.597 50.1293 139.392 50.1293C138.2 50.1293 137.267 49.7361 136.593 48.9497ZM140.605 47.7276C140.86 47.2742 140.988 46.5304 140.988 45.4959C140.988 44.49 140.856 43.7568 140.594 43.2961C140.331 42.8358 139.931 42.6054 139.392 42.6054C138.867 42.6054 138.477 42.8358 138.221 43.2961C137.966 43.7568 137.838 44.49 137.838 45.4959C137.838 46.516 137.966 47.2567 138.221 47.717C138.477 48.1777 138.867 48.4077 139.392 48.4077C139.945 48.4077 140.349 48.1813 140.605 47.7276ZM140.415 54.2057L148.01 41.0962C149.059 41.0962 149.713 42.2309 149.187 43.1368L141.584 56.2293C140.544 56.2293 139.894 55.1046 140.415 54.2057ZM147.382 55.1984C146.709 54.412 146.372 53.2537 146.372 51.7233C146.372 50.2216 146.709 49.0809 147.382 48.3014C148.056 47.5223 148.996 47.1325 150.202 47.1325C151.408 47.1325 152.348 47.5223 153.022 48.3014C153.695 49.0809 154.033 50.2287 154.033 51.7446C154.033 53.261 153.695 54.412 153.022 55.1984C152.348 55.9849 151.408 56.3781 150.202 56.3781C148.996 56.3781 148.056 55.9849 147.382 55.1984ZM151.394 53.9658C151.649 53.5055 151.777 52.765 151.777 51.7446C151.777 50.7387 151.646 50.0055 151.383 49.5449C151.12 49.0846 150.727 48.8542 150.202 48.8542C149.663 48.8542 149.266 49.0846 149.011 49.5449C148.755 50.0055 148.627 50.7387 148.627 51.7446C148.627 52.765 148.755 53.5055 149.011 53.9658C149.266 54.4264 149.663 54.6565 150.202 54.6565C150.741 54.6565 151.138 54.4264 151.394 53.9658Z" fill="black"/>
</g>
<defs>
<clipPath id="clip0_56_2977">
<rect width="169" height="194" fill="white"/>
</clipPath>
</defs>
</svg>
