<svg width="249" height="158" viewBox="0 0 249 158" fill="none" xmlns="http://www.w3.org/2000/svg">
<g clip-path="url(#clip0_56_3171)">
<path d="M191.649 119.342C201.891 93.5339 198.793 64.716 185.583 42.5833L47.307 61.8804L179.82 34.0458C123.971 -36.1476 15.2702 10.4108 25.7485 99.0351L191.649 119.342Z" fill="#E6E6E6"/>
<path d="M197.747 90.8135H21.5814V146.103H197.747V90.8135Z" fill="#F4CE14"/>
<path d="M70.7122 84.0713C72.2928 85.3084 72.8708 85.7078 73.2073 85.6571C89.5156 90.4436 75.219 96.0531 67.2952 86.5313L70.7122 84.0713Z" fill="#FFB8B8"/>
<path d="M16.8986 134.641V145.879L24.9262 145.43L22.6965 133.742L16.8986 134.641Z" fill="#FFB8B8"/>
<path d="M61.4974 134.641V145.879L53.4695 145.43L55.6995 133.742L61.4974 134.641Z" fill="#FFB8B8"/>
<path d="M36.968 76.6536L49.0097 76.2041C76.7884 105.556 66.283 98.8614 65.5113 139.136L50.7937 134.64L53.9156 106.771C53.9172 106.77 54.7391 106.217 54.0559 106.205C49.783 107.685 46.6653 89.3604 37.414 91.4875C26.8864 90.9799 25.1726 106.72 20.9124 106.771L24.0343 134.64L9.31667 139.136C7.66882 94.8784 -0.407332 104.876 25.8183 76.2041L36.968 76.6536Z" fill="#2F2E41"/>
<path d="M19.1284 142.282C19.1284 142.282 17.3445 138.686 15.1145 140.484C12.8846 142.282 7.53271 147.676 7.53271 147.676C7.53271 147.676 -5.40098 153.52 2.62683 157.116C10.6546 160.712 17.3445 152.171 17.3445 152.171C24.9908 150.564 29.4013 149.535 25.3463 141.129C23.0441 142.133 19.7862 143.295 19.1284 142.282Z" fill="#2F2E41"/>
<path d="M59.2674 142.282C59.2674 142.282 61.0514 138.686 63.2813 140.484C65.5113 142.282 70.8632 147.676 70.8632 147.676C70.8632 147.676 83.7968 153.52 75.769 157.116C67.7412 160.712 61.0514 152.171 61.0514 152.171C53.405 150.564 48.9946 149.535 53.0496 141.129C55.3517 142.133 58.6097 143.295 59.2674 142.282Z" fill="#2F2E41"/>
<path d="M49.0097 25.8594C48.3464 37.0496 33.1939 36.0644 32.9542 25.8594C33.6174 14.6693 48.7699 15.6545 49.0097 25.8594Z" fill="#FFB8B8"/>
<path d="M37.414 31.703C41.3156 43.5881 32.1041 37.1175 44.9958 46.5369L49.9017 36.6476C49.9017 36.6476 46.3338 35.2991 46.7798 30.3545L37.414 31.703Z" fill="#FFB8B8"/>
<path d="M61.4974 38.4452L48.2026 35.3867C48.5765 43.4663 40.0217 41.8402 38.5289 37.7759L25.8183 45.1879C31.1533 65.2148 29.8012 66.0411 22.6963 78.9011C19.9848 81.3968 24.0399 82.8271 27.5702 81.4615C30.2627 79.7865 31.6301 78.2981 34.5153 78.6768C48.1483 81.5379 59.4975 82.2132 61.2936 81.0953C61.9363 80.1682 61.275 38.6062 61.4974 38.4452Z" fill="#575A89"/>
<path d="M57.9295 39.3448C58.3755 39.3448 60.6728 38.2561 60.6728 38.2561C67.3567 38.1425 71.8421 83.4572 72.2011 84.7453L67.7412 87.8919L60.6054 69.462L57.9295 39.3448Z" fill="#575A89"/>
<path d="M26.7102 91.9371C26.9383 93.6336 27.3263 112.685 34.0975 103.786C34.9859 97.2929 31.9656 95.3547 31.1701 91.0381L26.7102 91.9371Z" fill="#FFB8B8"/>
<path d="M28.4942 45.1885L27.1277 44.4249C23.4641 44.3036 24.6187 54.0778 23.0688 61.2358C21.8025 69.5748 22.163 78.7697 23.6487 91.0628C23.7786 95.5739 31.7951 92.732 32.9541 92.3871C32.9541 92.3871 30.2782 73.9572 31.6161 70.8106C32.9541 67.664 28.4942 45.1885 28.4942 45.1885Z" fill="#575A89"/>
<path d="M48.6588 18.0156C47.4203 15.9885 45.4817 14.4948 43.216 13.8219L41.5519 15.1636L42.1989 13.5986C41.6548 13.515 41.1042 13.4829 40.5542 13.5028L39.0569 15.443L39.6766 13.5693C33.252 14.2645 29.4508 21.698 32.7862 26.9006C33.3007 25.3069 33.9252 23.8116 34.4397 22.218C34.844 22.2735 35.2539 22.2755 35.6588 22.224L36.2847 20.7518L36.4596 22.1617C38.3998 21.9913 41.2775 21.6173 43.1169 21.2746L42.9381 20.193L44.0081 21.0918C44.5717 20.961 44.9063 20.8425 44.8786 20.7518C46.2466 22.9746 47.602 24.3943 48.97 26.617C49.4893 23.4818 50.406 20.8757 48.6588 18.0156Z" fill="#2F2E41"/>
<path d="M187.203 97.4834H148.297V116.084H187.203V97.4834Z" fill="white"/>
<path d="M179.846 101.379H155.654V103.609H179.846V101.379Z" fill="#E6E6E6"/>
<path d="M179.846 105.669H155.654V107.899H179.846V105.669Z" fill="#E6E6E6"/>
<path d="M179.846 109.958H155.654V112.188H179.846V109.958Z" fill="#E6E6E6"/>
<path d="M114.416 101.902L113.15 99.6928L111.885 97.4834L110.62 99.6928L109.354 101.902H110.714V108.299H113.056V101.902H114.416Z" fill="white"/>
<path d="M200.168 147.422C205.923 147.422 210.588 142.719 210.588 136.919C210.588 131.118 205.923 126.416 200.168 126.416C194.413 126.416 189.747 131.118 189.747 136.919C189.747 142.719 194.413 147.422 200.168 147.422Z" fill="#3F3D56"/>
<path d="M202.062 141.574C204.613 141.574 206.681 139.49 206.681 136.919C206.681 134.349 204.613 132.265 202.062 132.265C199.512 132.265 197.444 134.349 197.444 136.919C197.444 139.49 199.512 141.574 202.062 141.574Z" fill="#E6E6E6"/>
<path d="M193.596 144.259L216.332 153.807L215.621 156.075L202.536 154.582L180.392 144.677L192.707 146.109L193.596 144.259Z" fill="#3F3D56"/>
<path d="M213.693 153.377L241.97 59.8874L248.856 47.5621L248.88 47.4432C248.902 47.3344 249.408 44.7582 248.164 42.8925C247.851 42.4288 247.446 42.0351 246.974 41.736C246.503 41.4369 245.976 41.2388 245.426 41.154C241.625 40.4358 233.123 40.082 232.763 40.0672L232.695 40.0645L232.628 40.0737C232.396 40.1057 226.962 40.9062 225.734 45.6885L219.822 56.5323L219.799 56.6095L193.037 145.286L194.51 145.738L221.248 57.1382L227.18 46.2578L227.204 46.1578C228.072 42.559 232.225 41.7171 232.777 41.6208C233.646 41.6581 241.637 42.0165 245.142 42.679C245.49 42.7268 245.825 42.847 246.124 43.0318C246.424 43.2166 246.682 43.4621 246.883 43.7528C247.649 44.8966 247.457 46.5807 247.39 47.0235L240.546 59.2732L240.522 59.3541L212.22 152.924L213.693 153.377Z" fill="#3F3D56"/>
<path d="M217.827 65.4985L217.554 67.0254L237.976 70.743L238.249 69.2161L217.827 65.4985Z" fill="#3F3D56"/>
<path d="M214.013 78.1956L213.705 79.7158L233.982 83.8868L234.29 82.3666L214.013 78.1956Z" fill="#3F3D56"/>
<path d="M207.222 100.906L206.798 102.397L226.595 108.107L227.018 106.615L207.222 100.906Z" fill="#3F3D56"/>
<path d="M220.61 144.922L221.171 143.477L201.956 135.894L201.013 125.597L218.947 132.348L224.757 140.821L226.024 139.939L219.938 131.065L199.254 123.278L200.511 136.99L220.61 144.922Z" fill="#3F3D56"/>
<path d="M227.285 157.447C233.04 157.447 237.705 152.745 237.705 146.944C237.705 141.144 233.04 136.441 227.285 136.441C221.53 136.441 216.864 141.144 216.864 146.944C216.864 152.745 221.53 157.447 227.285 157.447Z" fill="#3F3D56"/>
<path d="M230.008 152.077C232.559 152.077 234.627 149.993 234.627 147.422C234.627 144.852 232.559 142.768 230.008 142.768C227.458 142.768 225.39 144.852 225.39 147.422C225.39 149.993 227.458 152.077 230.008 152.077Z" fill="#E6E6E6"/>
</g>
<defs>
<clipPath id="clip0_56_3171">
<rect width="249" height="158" fill="white"/>
</clipPath>
</defs>
</svg>
