<svg width="238" height="211" viewBox="0 0 238 211" fill="none" xmlns="http://www.w3.org/2000/svg">
<g clip-path="url(#clip0_56_3243)">
<path d="M138.895 24.835C137.095 21.8439 134.961 18.6503 131.621 17.6736C127.752 16.5425 123.778 18.7894 120.407 21.0066C110.326 27.6376 100.618 34.8238 91.3275 42.5321L91.3377 42.6482C98.571 42.147 105.804 41.6459 113.038 41.1448C118.264 40.7827 123.669 40.3707 128.288 37.8869C130.04 36.9444 131.748 35.6854 133.734 35.5977C136.202 35.4887 138.353 37.2199 140.043 39.0286C150.044 49.7275 152.938 66.0887 164.158 75.4885C157.083 57.9595 148.635 41.0219 138.895 24.835Z" fill="#F2F2F2"/>
<path d="M200.367 115.581C199.261 114.178 198.809 113.849 197.719 112.433C188.836 100.892 180.487 88.9605 172.672 76.6393C167.364 68.2712 162.319 59.7424 157.537 51.0529C155.261 46.9218 153.047 42.7583 150.895 38.5624C149.225 35.309 147.593 32.0361 145.998 28.7438C145.541 27.8034 145.098 26.8587 144.657 25.9119C143.618 23.6853 142.598 21.4479 141.503 19.2515C140.255 16.7483 138.735 14.1239 136.444 12.4421C135.401 11.6453 134.154 11.1631 132.848 11.0521C130.983 10.931 129.261 11.7049 127.643 12.5501C115.793 18.809 104.731 26.4722 94.6962 35.376C84.6457 44.2439 75.6621 54.2624 67.9287 65.2275C67.6921 65.5669 67.1326 65.2426 67.3715 64.9011C68.3118 63.5651 69.2707 62.2435 70.2483 60.9364C82.404 44.6944 97.3087 30.7271 114.281 19.6731C117.137 17.814 120.046 16.0421 123.008 14.3574C124.502 13.5078 126.002 12.669 127.527 11.8822C129.023 11.1104 130.611 10.4165 132.319 10.3906C138.133 10.2998 141.143 16.9147 143.211 21.3657C143.861 22.7665 144.519 24.163 145.184 25.5552C147.7 30.8406 150.312 36.0778 153.021 41.2667C154.693 44.4704 156.401 47.6554 158.146 50.8216C163.577 60.6813 169.349 70.3414 175.463 79.8019C183.562 92.3336 191.597 103.404 200.823 115.123C201.077 115.447 200.623 115.91 200.367 115.581Z" fill="#E4E4E4"/>
<path d="M94.1216 32.1099C93.7838 31.7316 93.4482 31.3533 93.1082 30.975C90.4271 27.9961 87.5504 25.0518 83.8687 23.3441C82.1132 22.5041 80.1969 22.0578 78.2527 22.0362C76.243 22.0427 74.2785 22.5723 72.4216 23.3138C71.5437 23.6662 70.6851 24.0661 69.8395 24.492C68.8733 24.9805 67.9244 25.5015 66.9799 26.0268C65.2068 27.0125 63.4567 28.0415 61.7297 29.1138C58.2933 31.2474 54.9646 33.5439 51.7435 36.0032C50.0737 37.2787 48.4384 38.5959 46.8375 39.9549C45.3486 41.2173 43.8897 42.5137 42.461 43.8439C42.1554 44.1271 41.6992 43.6688 42.0048 43.3856C42.3813 43.0332 42.7622 42.683 43.143 42.3371C44.2189 41.36 45.312 40.4017 46.4223 39.462C48.447 37.7456 50.5241 36.0955 52.6537 34.5116C55.9652 32.0472 59.3907 29.75 62.9303 27.62C64.699 26.5564 66.4921 25.5375 68.3096 24.5633C68.8583 24.2693 69.4135 23.9818 69.975 23.7094C71.2493 23.0637 72.5733 22.5222 73.9342 22.0903C75.8619 21.4637 77.9016 21.2624 79.9138 21.5001C81.8567 21.784 83.7287 22.4346 85.4309 23.4176C89.0457 25.4474 91.8494 28.5863 94.5778 31.6495C94.8533 31.9608 94.3992 32.4212 94.1216 32.1099Z" fill="#E4E4E4"/>
<path d="M168.189 62.9789L176.851 59.796L181.152 58.2156C182.553 57.7009 183.95 57.115 185.398 56.7464C186.656 56.3853 187.992 56.4024 189.241 56.7956C190.355 57.2097 191.374 57.8446 192.239 58.6624C193.122 59.4796 193.944 60.3613 194.697 61.3003C195.634 62.4308 196.556 63.5732 197.483 64.7118C201.307 69.4108 205.107 74.1303 208.881 78.8701C212.656 83.6099 216.405 88.3698 220.129 93.1498C223.862 97.9415 227.569 102.753 231.251 107.585C231.702 108.177 232.153 108.769 232.603 109.362C232.852 109.689 233.413 109.366 233.16 109.034C229.451 104.154 225.717 99.2936 221.956 94.4532C218.186 89.6012 214.39 84.7697 210.568 79.9589C206.747 75.1482 202.899 70.3583 199.025 65.5893C198.06 64.4012 197.094 63.2144 196.126 62.0289C195.309 61.0289 194.501 60.0181 193.606 59.0873C191.961 57.3788 189.907 55.869 187.448 55.8281C186.002 55.804 184.603 56.2649 183.26 56.7531C181.812 57.2794 180.367 57.8156 178.921 58.347L170.198 61.5523L168.017 62.3536C167.63 62.4958 167.797 63.1228 168.189 62.9789Z" fill="#E4E4E4"/>
<path d="M82.7288 27.0926C78.3269 24.8197 72.6896 25.2649 68.6446 28.1045C76.3602 29.4419 83.9914 31.2312 91.4991 33.4635C88.3814 31.628 85.9427 28.7521 82.7288 27.0926Z" fill="#F2F2F2"/>
<path d="M68.6013 28.0967L67.7538 28.7887C68.0405 28.5465 68.3385 28.3194 68.6446 28.1045C68.6301 28.102 68.6157 28.0992 68.6013 28.0967Z" fill="#F2F2F2"/>
<path d="M191.912 63.0113C191.06 61.9685 190.138 60.8767 188.862 60.4531L187.672 60.5003C196.736 76.5917 208.978 90.6523 223.646 101.819C213.068 88.8831 202.49 75.9472 191.912 63.0113Z" fill="#F2F2F2"/>
<path d="M137.398 148.198C137.366 148.198 137.334 148.193 137.304 148.182L114.36 139.714C114.292 139.689 114.237 139.638 114.207 139.572C114.176 139.506 114.173 139.431 114.198 139.363C114.223 139.295 114.274 139.239 114.34 139.209C114.405 139.178 114.48 139.175 114.548 139.2L137.492 147.668C137.552 147.69 137.602 147.733 137.634 147.789C137.666 147.844 137.677 147.91 137.666 147.973C137.655 148.036 137.622 148.093 137.573 148.135C137.524 148.176 137.462 148.198 137.398 148.198Z" fill="black"/>
<path d="M95.4639 132.331C95.4319 132.331 95.4001 132.326 95.3701 132.314L72.4259 123.847C72.3582 123.822 72.3031 123.771 72.2727 123.705C72.2424 123.639 72.2394 123.564 72.2643 123.496C72.2891 123.428 72.3399 123.372 72.4055 123.342C72.471 123.311 72.5459 123.308 72.6137 123.333L95.5578 131.801C95.6178 131.823 95.6681 131.866 95.7 131.921C95.7318 131.977 95.7431 132.042 95.7319 132.106C95.7207 132.169 95.6878 132.226 95.6388 132.267C95.5897 132.309 95.5279 132.331 95.4639 132.331Z" fill="black"/>
<path d="M52.713 116.465C52.681 116.465 52.6492 116.459 52.6191 116.448L29.675 107.98C29.6414 107.968 29.6106 107.949 29.5844 107.925C29.5581 107.9 29.5368 107.871 29.5218 107.839C29.5068 107.806 29.4983 107.771 29.4969 107.735C29.4954 107.699 29.501 107.663 29.5133 107.629C29.5256 107.596 29.5445 107.565 29.5687 107.538C29.5929 107.512 29.6221 107.491 29.6545 107.475C29.687 107.46 29.7221 107.452 29.7578 107.45C29.7935 107.449 29.8292 107.455 29.8627 107.467L52.8069 115.935C52.8669 115.957 52.9172 116 52.949 116.055C52.9809 116.111 52.9922 116.176 52.981 116.239C52.9698 116.303 52.9368 116.36 52.8878 116.401C52.8388 116.442 52.7769 116.465 52.713 116.465Z" fill="black"/>
<path d="M48.4141 75.3355C47.4575 75.1207 46.4888 74.951 45.5322 74.8328L45.393 74.8155C39.0427 74.0559 33.6815 76.7189 32.9228 81.0103L32.7879 81.7868C32.7037 82.2779 32.6128 82.8058 32.5048 83.3898C32.4525 83.6781 32.7408 83.973 33.1603 84.0672L185.89 118.367C196.675 120.71 207.425 123.024 217.841 125.246C219.789 125.688 221.764 126.009 223.752 126.206C226.728 126.46 228.906 126.126 230.413 125.187L230.413 125.187C232.286 124.024 232.757 122.135 233.141 119.968C233.916 115.592 234.742 110.997 235.564 106.416C236.289 102.379 237.012 98.3521 237.697 94.4956C238.099 92.206 238.318 90.1544 236.913 88.2333C235.389 86.1547 232.126 84.5416 227.213 83.4383C227.154 83.425 227.095 83.4118 227.034 83.3985C211.624 80.0043 195.007 82.701 185.685 90.1092C184.611 90.9623 183.579 91.9018 182.58 92.8106C181.103 94.2182 179.528 95.5192 177.869 96.7041C176.952 97.3379 175.98 97.886 174.964 98.3417C174.895 98.3759 174.815 98.4114 174.733 98.4435C174.541 98.5305 174.343 98.6113 174.151 98.6801C173.039 99.1112 171.883 99.4227 170.705 99.6094L170.588 99.6271C170.499 99.6425 170.403 99.6563 170.308 99.6673C169.633 99.7584 168.953 99.8122 168.272 99.8283C165.328 99.9128 162.122 99.3716 158.744 98.2193C155.626 97.1436 152.648 95.697 149.873 93.9103C146.928 92.0188 144.253 89.8841 141.665 87.8199C140.529 86.9129 139.354 85.9752 138.172 85.0715C137.95 84.9015 137.732 84.735 137.51 84.5676C136.063 83.4817 134.738 82.5557 133.46 81.7368C130.322 79.7156 126.918 78.147 123.346 77.0766C119.571 75.9742 116.095 75.6737 113.018 76.1808C112.163 76.3211 111.32 76.5287 110.498 76.8017C106.707 78.0592 103.986 80.5606 101.354 82.9797C98.0807 85.9887 94.6957 89.1004 89.2065 89.8747C82.8721 90.7702 74.5472 87.9376 68.8678 84.9873C67.0823 84.0596 65.3158 83.0571 63.6075 82.0873C62.9175 81.6956 62.2267 81.3053 61.535 80.9165C60.1753 80.1545 59.0575 79.5536 58.0173 79.0246L57.6885 78.8566C57.5053 78.7643 57.322 78.6719 57.1346 78.5811C55.8955 77.9688 54.7315 77.4446 53.5741 76.978L53.3006 76.8662C52.7502 76.6515 52.2336 76.4596 51.7244 76.2815L51.5211 76.2106C50.502 75.8627 49.4648 75.5705 48.4141 75.3355Z" fill="#F2F2F2"/>
<path d="M230.637 126.855C230.618 126.855 230.6 126.853 230.581 126.849L29.0797 84.1161C29.0095 84.1008 28.9481 84.0581 28.909 83.9974C28.8699 83.9367 28.8563 83.863 28.8712 83.7923C28.886 83.7216 28.9281 83.6596 28.9883 83.62C29.0484 83.5804 29.1218 83.5663 29.1922 83.5808L230.693 126.314C230.759 126.328 230.818 126.366 230.857 126.421C230.897 126.475 230.915 126.543 230.908 126.61C230.901 126.677 230.87 126.74 230.82 126.785C230.77 126.83 230.705 126.855 230.637 126.855Z" fill="black"/>
<path d="M188.839 27.9038C196.509 27.9038 202.727 21.6573 202.727 13.9519C202.727 6.24648 196.509 0 188.839 0C181.17 0 174.952 6.24648 174.952 13.9519C174.952 21.6573 181.17 27.9038 188.839 27.9038Z" fill="#FF6584"/>
<path d="M213.9 3.24721C207.17 2.33322 199.486 5.98799 197.742 12.5823C197.302 11.4098 196.503 10.4081 195.46 9.72187C194.416 9.03563 193.183 8.7004 191.937 8.76461C190.692 8.82882 189.499 9.28914 188.531 10.0791C187.563 10.869 186.87 11.9476 186.552 13.1592L187.323 13.7136C201.746 16.8471 216.676 16.7793 231.07 13.5149C226.388 8.57181 220.631 4.16116 213.9 3.24721Z" fill="#F0F0F0"/>
<path d="M185.037 21.8497C178.306 20.9358 170.623 24.5905 168.878 31.1848C168.439 30.0123 167.639 29.0106 166.596 28.3244C165.553 27.6382 164.319 27.3029 163.074 27.3671C161.828 27.4314 160.635 27.8917 159.667 28.6816C158.699 29.4715 158.006 30.5502 157.688 31.7617L158.459 32.3161C172.882 35.4496 187.812 35.3818 202.206 32.1174C197.525 27.1743 191.767 22.7637 185.037 21.8497Z" fill="#F0F0F0"/>
<path d="M197.115 133.797C196.841 133.52 196.631 133.186 196.499 132.819C196.367 132.452 196.317 132.06 196.352 131.671C196.387 131.282 196.507 130.906 196.703 130.569C196.898 130.232 197.165 129.942 197.485 129.719L193.253 108.604L197.926 110.111L201.313 130.535C201.649 131.099 201.768 131.767 201.647 132.412C201.526 133.058 201.173 133.637 200.656 134.039C200.138 134.441 199.492 134.638 198.84 134.594C198.187 134.549 197.573 134.265 197.115 133.797Z" fill="#9E616A"/>
<path d="M190.867 89.1216L193.766 86.9228C193.766 86.9228 196.324 86.7409 196.777 91.3748C197.23 96.0087 198.16 105.04 198.16 105.04L202.597 125.684L196.455 127.038L191.703 104.759L188.853 98.1433L190.867 89.1216Z" fill="#2F2E41"/>
<path d="M195.647 122.832L179.309 122.558L177.947 111.342H195.647V122.832Z" fill="#9E616A"/>
<path d="M180.543 191.451L176.771 191.451L174.977 176.835L180.543 176.835L180.543 191.451Z" fill="#9E616A"/>
<path d="M204.572 186.202L200.8 186.175L199.108 171.547L204.013 172.678L204.572 186.202Z" fill="#9E616A"/>
<path d="M192.775 101.682L193.63 103.914L193.459 106.147L176.733 111.967L177.563 102.197L179.443 99.9648L192.775 101.682Z" fill="#FFB6B6"/>
<path d="M185.6 81.5931C188.899 81.5931 191.573 78.906 191.573 75.5915C191.573 72.2769 188.899 69.5898 185.6 69.5898C182.3 69.5898 179.626 72.2769 179.626 75.5915C179.626 78.906 182.3 81.5931 185.6 81.5931Z" fill="#9E616A"/>
<path d="M182.23 198.645H179.554L179.076 196.107L177.853 198.645H170.754C170.414 198.645 170.083 198.536 169.809 198.334C169.535 198.131 169.332 197.846 169.231 197.519C169.13 197.193 169.135 196.843 169.246 196.52C169.357 196.196 169.568 195.917 169.848 195.723L175.516 191.79V189.224L181.478 189.581L182.23 198.645Z" fill="#2F2E41"/>
<path d="M206.551 193.411L203.874 193.392L203.414 190.85L202.173 193.38L195.075 193.33C194.735 193.328 194.404 193.216 194.131 193.012C193.859 192.807 193.658 192.521 193.559 192.194C193.46 191.867 193.468 191.516 193.581 191.194C193.694 190.872 193.907 190.594 194.189 190.402L199.884 186.509L199.902 183.942L205.862 184.342L206.551 193.411Z" fill="#2F2E41"/>
<path d="M205.745 175.8L202.999 158.943L199.731 135.689C202.124 131.225 196.736 117.36 196.736 117.36L195.975 117.397L178.761 120.66L178.764 120.643C175.243 130.291 174.077 135.058 174.27 145.332L174.963 182.266H174.746C174.385 182.266 174.038 182.411 173.783 182.667C173.528 182.924 173.384 183.271 173.384 183.634C173.384 183.997 173.528 184.345 173.783 184.601C174.038 184.858 174.385 185.002 174.746 185.002H181.553C181.914 185.002 182.261 184.858 182.516 184.601C182.771 184.345 182.915 183.997 182.915 183.634C182.915 183.271 182.771 182.924 182.516 182.667C182.261 182.411 181.914 182.266 181.553 182.266H181.378L187.626 138.289L192.924 156.754L198.914 175.63C196.736 175.083 197.074 176.351 197.074 177.069C197.074 177.431 197.218 177.779 197.473 178.036C197.728 178.292 198.075 178.436 198.436 178.436H205.243C205.56 178.437 205.867 178.326 206.111 178.124C206.355 177.921 206.521 177.639 206.58 177.327C206.64 177.014 206.589 176.691 206.437 176.412C206.284 176.133 206.04 175.917 205.745 175.8Z" fill="#2F2E41"/>
<path d="M198.076 118.078L197.532 112.607C197.475 112.384 197.35 112.184 197.173 112.037C196.997 111.89 196.779 111.802 196.55 111.788C196.323 109.181 195.369 97.9372 195.311 97.4468L195.309 97.4261L194.875 88.109C194.859 87.7706 194.72 87.4499 194.484 87.2082C194.248 86.9664 193.931 86.8206 193.595 86.7985L191.302 86.6479C191.27 86.6469 191.24 86.6336 191.219 86.6108C191.197 86.5881 191.184 86.5577 191.184 86.5261C191.184 86.2717 191.135 86.0198 191.038 85.7848C190.941 85.5497 190.799 85.3362 190.62 85.1563C190.441 84.9764 190.228 84.8337 189.994 84.7363C189.76 84.639 189.509 84.5889 189.256 84.5889H182.467C182.028 84.589 181.603 84.7504 181.274 85.0428C180.944 85.3351 180.732 85.7383 180.677 86.1766C180.674 86.2068 180.66 86.2347 180.637 86.2548C180.614 86.2749 180.585 86.2857 180.555 86.285L180.554 86.285C179.783 86.269 179.031 86.5314 178.436 87.0245C177.841 87.5176 177.441 88.2088 177.31 88.9726C176.381 94.3977 174.521 106.711 175.441 113.556C175.761 115.939 175.071 114.051 174.95 116.045C174.938 116.238 174.964 116.431 175.026 116.614C175.089 116.796 175.186 116.965 175.314 117.109C174.753 117.273 174.536 117.881 174.68 118.454L174.56 118.425C174.631 118.706 174.81 118.948 175.058 119.097C175.306 119.245 175.603 119.289 175.883 119.218L196.742 113.935C197.325 113.788 198.223 118.664 198.076 118.078Z" fill="#2F2E41"/>
<path d="M175.118 133.797C175.392 133.52 175.602 133.186 175.734 132.819C175.866 132.452 175.916 132.06 175.88 131.671C175.845 131.282 175.726 130.906 175.53 130.569C175.334 130.232 175.067 129.942 174.748 129.719L178.98 108.604L174.307 110.111L170.92 130.535C170.583 131.099 170.464 131.767 170.585 132.413C170.707 133.058 171.059 133.637 171.577 134.039C172.094 134.441 172.74 134.639 173.393 134.594C174.046 134.549 174.659 134.265 175.118 133.797Z" fill="#9E616A"/>
<path d="M181.366 89.1216L178.467 86.9228C178.467 86.9228 175.909 86.7409 175.456 91.3748C175.003 96.0087 174.073 105.04 174.073 105.04L169.636 125.684L175.778 127.038L180.529 104.759L183.38 98.1433L181.366 89.1216Z" fill="#2F2E41"/>
<path d="M191.997 70.2552C193.11 70.588 194.148 69.6528 194.922 68.7667L194.647 69.0949C196.469 70.3841 197.559 72.4843 198.266 74.6103C198.973 76.7339 199.367 78.9584 200.165 81.0516C200.963 83.1424 202.251 85.1653 204.222 86.2084C206.863 87.6054 210.099 86.9702 212.909 85.9622C212.946 85.9482 212.981 85.9365 213.018 85.9224C211.88 83.7873 211.184 81.4433 210.97 79.0311C212.125 81.2976 213.792 83.2617 215.837 84.7668C217.672 83.9286 219.437 82.9424 221.114 81.8181C222.199 81.0891 223.342 80.1468 223.468 78.8412C223.597 77.545 222.633 76.3613 221.497 75.7377C220.361 75.1143 219.054 74.9033 217.813 74.5283C216.574 74.1556 215.309 73.5438 214.658 72.4187C213.158 69.8309 215.683 66.1813 214.073 63.6592C213.28 62.4192 211.74 61.9222 210.312 61.5777C208.132 61.054 205.92 60.6788 203.69 60.4549C201.733 60.258 199.71 60.1853 197.848 60.8182C195.986 61.4511 194.297 62.9208 193.898 64.8569C192.811 65.4312 191.661 66.0664 191.077 67.1564C190.494 68.244 190.818 69.9036 191.997 70.2552Z" fill="#2F2E41"/>
<path d="M193.658 69.8192C194.724 71.1604 195.304 72.6108 195.304 73.4794C197.518 77.5444 194.352 81.0361 190.306 83.2601C188.692 84.1519 186.828 84.4783 185.009 84.1878L184.84 83.4618L184.611 84.1158C184.611 84.1158 181.976 92.8572 181.107 93.37C181.437 91.8143 181.815 84.6113 181.998 83.093C182.253 81.0266 181.367 77.9503 180.728 76.0794C180.331 74.9264 180.128 73.7154 180.126 72.4956V72.4423L179.504 74.4503L177.238 73.4794C177.66 71.0508 177.238 68.2938 182.291 68.5329C185.024 66.6447 187.43 66.3571 189.407 66.8926C189.662 66.4964 191.133 67.2385 191.558 67.0299" fill="#2F2E41"/>
<path d="M199.315 112.498C199.219 113.359 198.839 114.163 198.236 114.782C197.633 115.402 196.842 115.801 195.987 115.917L183.687 117.592C182.67 117.729 181.641 117.455 180.824 116.831C180.008 116.206 179.472 115.281 179.333 114.26L177.561 101.09C177.445 100.234 177.618 99.3635 178.051 98.617L177.966 97.9769C177.617 97.849 177.309 97.6278 177.076 97.3369C176.843 97.046 176.693 96.6967 176.643 96.3266C176.593 95.9565 176.645 95.5798 176.793 95.2371C176.941 94.8944 177.179 94.5987 177.482 94.3822L179.001 87.3105C178.981 87.159 178.992 87.0049 179.035 86.8581C179.077 86.7113 179.15 86.5751 179.247 86.4581C179.345 86.3412 179.467 86.2461 179.603 86.179C179.74 86.1119 179.889 86.0742 180.041 86.0685C180.318 86.0654 180.585 86.1652 180.793 86.3485C181.001 86.5318 181.133 86.7858 181.166 87.0615L181.305 88.1011C181.49 89.4751 182.188 90.7272 183.257 91.6041C184.327 92.481 185.687 92.9173 187.064 92.8249C188.442 92.7324 189.733 92.1182 190.676 91.1062C191.62 90.0942 192.146 88.76 192.148 87.3734C192.148 87.1255 192.131 86.8778 192.099 86.632L191.963 85.6089C191.918 85.3246 191.983 85.034 192.144 84.7958C192.304 84.5576 192.549 84.3897 192.828 84.3259C192.974 84.2981 193.123 84.3004 193.268 84.3327C193.412 84.365 193.549 84.4265 193.669 84.5136C193.789 84.6007 193.89 84.7114 193.966 84.839C194.042 84.9667 194.091 85.1086 194.111 85.256L194.99 91.7669C195.474 91.7334 195.954 91.874 196.344 92.1637C196.734 92.4534 197.008 92.8731 197.118 93.3476C197.228 93.8221 197.166 94.3203 196.943 94.7531C196.72 95.1858 196.352 95.5247 195.903 95.709C196.343 96.0154 196.715 96.4106 196.995 96.8693C197.275 97.3281 197.456 97.8403 197.528 98.3735L199.304 111.546C199.347 111.861 199.35 112.181 199.315 112.498Z" fill="#F4CE14"/>
<path d="M177.791 98.2669C177.777 98.1591 177.805 98.0499 177.871 97.9633C177.937 97.8768 178.034 97.8199 178.141 97.8052L194.905 95.2234C194.959 95.2162 195.013 95.2196 195.064 95.2333C195.116 95.2471 195.165 95.271 195.208 95.3036C195.25 95.3363 195.286 95.377 195.313 95.4236C195.34 95.4702 195.358 95.5216 195.365 95.575C195.372 95.6284 195.369 95.6828 195.355 95.7349C195.341 95.787 195.318 95.8358 195.285 95.8787C195.253 95.9216 195.212 95.9576 195.166 95.9847C195.119 96.0118 195.068 96.0295 195.015 96.0367L178.251 98.6185C178.143 98.633 178.035 98.6041 177.948 98.5382C177.862 98.4722 177.806 98.3747 177.791 98.2669Z" fill="#3F3D56"/>
<path d="M179.75 105.18L179.196 101.067C179.153 100.749 179.238 100.428 179.431 100.173C179.624 99.9185 179.91 99.7512 180.226 99.7083L196.237 97.6506C196.553 97.6076 196.873 97.6925 197.127 97.8865C197.38 98.0805 197.547 98.3678 197.589 98.6851L198.144 102.798C198.186 103.116 198.102 103.437 197.909 103.692C197.716 103.947 197.43 104.114 197.114 104.157L190.718 105.041C190.732 105.085 190.742 105.129 190.75 105.175L191.316 109.377L196.713 108.643C196.749 108.638 196.785 108.64 196.819 108.649C196.854 108.658 196.886 108.674 196.915 108.696C196.943 108.718 196.967 108.745 196.985 108.776C197.003 108.807 197.015 108.841 197.02 108.877C197.025 108.913 197.022 108.949 197.013 108.984C197.004 109.018 196.988 109.051 196.967 109.08C196.945 109.108 196.918 109.132 196.887 109.15C196.856 109.168 196.822 109.18 196.786 109.185L191.389 109.919L188.961 110.249L183.834 110.946C183.762 110.956 183.69 110.936 183.633 110.892C183.575 110.848 183.537 110.783 183.528 110.712C183.518 110.64 183.537 110.567 183.581 110.509C183.625 110.452 183.689 110.414 183.761 110.404L188.888 109.707L188.322 105.505C188.318 105.459 188.316 105.413 188.317 105.367L181.102 106.215C180.786 106.258 180.467 106.173 180.213 105.979C179.959 105.785 179.793 105.497 179.75 105.18Z" fill="#3F3D56"/>
<path d="M116.816 211C116.749 211 116.684 210.975 116.634 210.93L0.0900193 105.39C0.036484 105.341 0.00433676 105.273 0.000633852 105.201C-0.00306905 105.128 0.0219764 105.057 0.0702708 105.004C0.118565 104.95 0.186163 104.917 0.25822 104.913C0.330277 104.91 0.400904 104.935 0.454596 104.983L116.999 210.523C117.039 210.56 117.068 210.609 117.081 210.663C117.094 210.716 117.09 210.773 117.071 210.825C117.051 210.876 117.016 210.921 116.97 210.952C116.925 210.983 116.871 211 116.816 211Z" fill="black"/>
<path d="M177.825 104.39C177.831 104.311 177.819 104.231 177.792 104.157C177.765 104.083 177.722 104.015 177.666 103.959C177.611 103.903 177.544 103.859 177.47 103.831C177.397 103.803 177.318 103.791 177.239 103.796C177.21 103.797 177.181 103.801 177.152 103.807L173.705 104.589C173.628 104.608 173.556 104.643 173.493 104.691C173.43 104.74 173.378 104.801 173.34 104.871C173.289 104.873 173.239 104.88 173.19 104.893C172.974 104.942 172.785 105.076 172.667 105.265C172.548 105.454 172.509 105.682 172.558 105.9C172.608 106.117 172.741 106.307 172.929 106.426C173.117 106.545 173.344 106.584 173.561 106.534C173.684 106.506 173.799 106.45 173.898 106.37L175.066 109.675C175.125 109.779 175.215 109.86 175.323 109.908C175.432 109.956 175.553 109.967 175.668 109.94L177.909 109.432C178.024 109.405 178.127 109.342 178.204 109.252C178.28 109.163 178.327 109.051 178.337 108.934L177.825 104.39ZM173.509 106.299C173.432 106.317 173.353 106.319 173.275 106.306C173.198 106.293 173.123 106.264 173.057 106.222C172.99 106.18 172.932 106.125 172.887 106.061C172.841 105.996 172.809 105.923 172.791 105.846C172.774 105.769 172.772 105.69 172.785 105.612C172.798 105.534 172.826 105.459 172.868 105.392C172.91 105.325 172.964 105.267 173.029 105.222C173.093 105.176 173.165 105.143 173.242 105.126C173.253 105.123 173.264 105.126 173.275 105.123C173.274 105.223 173.299 105.321 173.348 105.407L173.776 106.157C173.701 106.228 173.609 106.277 173.509 106.299Z" fill="#CCCCCC"/>
<path d="M177.239 103.796C177.272 104.234 176.526 104.737 175.527 104.937C174.609 105.125 173.787 104.994 173.555 104.649C173.602 104.622 173.652 104.601 173.705 104.589L177.152 103.807C177.181 103.801 177.21 103.797 177.239 103.796Z" fill="#E6E6E6"/>
<path d="M175.438 112.537L174.437 110.446C173.851 109.22 174.924 107.916 176.83 107.539L179.178 107.142L180.16 114.036L179.957 114.076C178.051 114.453 176.024 113.763 175.438 112.537Z" fill="#F4CE14"/>
<g opacity="0.2">
<path d="M199.315 112.498C199.219 113.359 198.839 114.163 198.236 114.783C197.633 115.402 196.842 115.802 195.987 115.918L183.687 117.592C182.957 117.691 182.213 117.579 181.544 117.267C180.875 116.956 180.308 116.459 179.911 115.836C180.257 115.414 180.687 115.07 181.172 114.823C181.658 114.576 182.188 114.433 182.732 114.402C183.788 114.347 184.812 114.7 185.847 114.897C188.349 115.371 190.937 114.94 193.152 113.68C194.114 113.119 194.98 112.402 196.036 112.003C197.093 111.606 198.457 111.62 199.222 112.394C199.255 112.427 199.286 112.462 199.315 112.498Z" fill="black"/>
</g>
</g>
<defs>
<clipPath id="clip0_56_3243">
<rect width="238" height="211" fill="white"/>
</clipPath>
</defs>
</svg>
