<svg width="237" height="204" viewBox="0 0 237 204" fill="none" xmlns="http://www.w3.org/2000/svg">
<g clip-path="url(#clip0_56_3058)">
<path d="M98.5847 177.226L101.173 168.801C98.0588 165.375 94.1546 162.76 89.7998 161.185C94.0544 168.23 89.9317 177.42 91.6497 185.468C92.2047 187.974 93.3169 190.323 94.9038 192.34C96.4906 194.358 98.5115 195.994 100.817 197.125L104.745 201.989C106.804 198.393 108.059 194.394 108.423 190.267C108.787 186.139 108.251 181.982 106.853 178.082C106.046 175.901 104.969 173.831 103.645 171.92C101.311 174.663 98.5847 177.226 98.5847 177.226Z" fill="#F2F2F2"/>
<path d="M84.3515 178.303L82.9087 169.607C78.5923 167.929 73.9314 167.33 69.3306 167.86C76.2823 172.27 76.6931 182.333 81.8218 188.77C83.4368 190.766 85.4804 192.372 87.8011 193.471C90.1219 194.57 92.6602 195.133 95.2281 195.118L100.915 197.721C101.153 193.584 100.492 189.445 98.9757 185.589C97.4597 181.733 95.1253 178.251 92.1333 175.383C90.4388 173.791 88.5505 172.418 86.5129 171.298C85.6475 174.793 84.3515 178.303 84.3515 178.303Z" fill="#F2F2F2"/>
<path d="M169.071 199.826L165.084 199.826L163.187 184.455L169.072 184.455L169.071 199.826Z" fill="#FFB6B6"/>
<path d="M170.088 203.69L157.232 203.69V203.527C157.232 202.201 157.759 200.929 158.698 199.991C159.636 199.053 160.909 198.526 162.236 198.526H162.236L164.585 196.745L168.966 198.526L170.088 198.526L170.088 203.69Z" fill="#2F2E41"/>
<path d="M233.479 185.291L230.761 188.206L218.217 179.113L222.229 174.811L233.479 185.291Z" fill="#FFB6B6"/>
<path d="M237 187.181L228.234 196.581L228.115 196.47C227.144 195.566 226.573 194.313 226.526 192.987C226.48 191.662 226.962 190.372 227.866 189.401L228.164 186.47L232.455 184.481L233.22 183.66L237 187.181Z" fill="#2F2E41"/>
<path d="M227.58 176.653L223.365 185.462L197.486 168.337L193.722 163.21L181.377 146.399L176.359 154.357L172.868 162.676C171.73 163.418 170.771 164.403 170.06 165.561C169.35 166.718 168.905 168.018 168.759 169.368L168.599 170.841L170.805 190.665L162.42 193.238L157.603 166.608L159.178 160.837L160.799 152.737L168.96 127.141H190.798L203.323 153.788L204.239 159.217L207.79 163.291L227.58 176.653Z" fill="#2F2E41"/>
<path d="M182.196 85.2617L185.872 88.0595L190.305 89.4212C190.305 89.4212 192.138 115.189 193.79 116.84C195.441 118.49 193.952 118.535 194.284 120.679C194.616 122.823 195.422 127.219 195.422 127.219C184.275 133.116 174.664 133.275 166.945 126.373C166.846 125.946 166.896 125.498 167.087 125.104C167.278 124.709 167.598 124.392 167.994 124.204C169.43 123.442 166.669 119.886 167.843 119.291C169.018 118.697 167.366 113.538 167.366 113.538L168.449 102.776L167.593 101.056L169.682 90.5294L173.307 89.2065L174.754 85.7201L182.196 85.2617Z" fill="#3F3D56"/>
<path d="M184.499 131.06C184.482 130.595 184.568 130.132 184.75 129.703C184.932 129.275 185.206 128.891 185.552 128.58C185.899 128.268 186.309 128.037 186.755 127.901C187.201 127.765 187.671 127.729 188.132 127.794L193.313 117.729L196.199 122.855L190.837 131.627C190.675 132.394 190.238 133.076 189.607 133.542C188.977 134.008 188.197 134.227 187.416 134.158C186.635 134.088 185.906 133.734 185.369 133.163C184.831 132.592 184.521 131.844 184.499 131.06Z" fill="#FFB6B6"/>
<path d="M193.224 128.598L204.336 111.384L204.3 111.305C204.258 111.214 201.741 105.782 199.303 100.807C198.927 100.041 198.554 99.2856 198.191 98.5622C198.035 98.25 197.881 97.9444 197.729 97.6453C196.705 95.6274 195.81 93.9596 195.276 93.1673C194.095 91.3761 192.336 90.0426 190.292 89.3882L190.24 89.375L190.191 89.3955C189.191 89.8172 188.365 90.5668 187.849 91.5209C187.332 92.4749 187.157 93.5763 187.351 94.6436C188.315 99.7913 190.462 104.645 193.624 108.821L195.426 111.194L189.165 124.797L193.224 128.598Z" fill="#3F3D56"/>
<path d="M155.012 62.6148C155.318 62.966 155.543 63.3799 155.672 63.8274C155.8 64.275 155.829 64.7453 155.756 65.2052C155.683 65.6651 155.51 66.1034 155.25 66.4893C154.989 66.8752 154.647 67.1993 154.247 67.4387L156.564 78.5181L151.092 76.3529L149.731 66.1636C149.373 65.466 149.284 64.6614 149.48 63.9023C149.676 63.1432 150.143 62.4823 150.794 62.0449C151.445 61.6074 152.234 61.4238 153.011 61.5289C153.789 61.6339 154.5 62.0203 155.012 62.6148Z" fill="#FFB6B6"/>
<path d="M149.785 70.0195L151.998 90.3855L152.076 90.424C152.141 90.4557 154.944 91.83 158.385 93.4666C158.966 93.7427 158.882 94.9387 159.489 95.2245C159.907 95.4214 161.011 94.707 161.433 94.9044C165.194 96.6623 168.997 98.3718 170.513 98.835C172.559 99.483 174.766 99.412 176.766 98.6338L176.814 98.6117L176.839 98.5649C177.351 97.608 177.52 96.5056 177.32 95.4394C177.12 94.3733 176.563 93.4071 175.74 92.7001C171.748 89.3078 167.022 86.8892 161.934 85.6354L159.039 84.9255L155.332 70.4177L149.785 70.0195Z" fill="#3F3D56"/>
<path d="M178.276 84.1078C182.292 84.1078 185.548 80.8539 185.548 76.84C185.548 72.8262 182.292 69.5723 178.276 69.5723C174.26 69.5723 171.005 72.8262 171.005 76.84C171.005 80.8539 174.26 84.1078 178.276 84.1078Z" fill="#FFB6B6"/>
<path d="M171.057 71.9707C171.655 70.2319 174.632 69.0258 179.458 68.8581C184.284 68.6904 185.508 74.3746 185.508 74.3746C188.729 76.9867 182.067 83.9798 181.745 83.728L181.89 82.4141C182.13 80.2378 183.15 78.5398 181.853 76.2717L180.608 76.286C179 76.5951 177.391 76.9041 175.783 77.2132L177.687 75.5378L177.633 75.4548C176.824 75.8764 175.942 76.1438 175.035 76.2434C174.011 76.3036 172.893 75.8965 172.403 74.9967C172.272 74.7494 172.192 74.4784 172.167 74.1996C170.787 74.7506 170.156 76.4509 170.156 76.4509C170.156 76.4509 170.459 73.7095 171.057 71.9707Z" fill="#2F2E41"/>
<path d="M29.2972 72.4061C29.1985 72.281 29.0923 72.1621 28.9791 72.0501C29.0067 72.0121 29.0344 71.9706 29.0621 71.9326L29.2972 72.4061Z" fill="#2F2E41"/>
<path d="M30.7114 101.637C29.5219 103.749 27.1464 104.927 24.7917 105.504C22.1467 106.197 19.3615 106.143 16.7454 105.349C16.4134 105.242 16.0815 105.117 15.7599 104.979C15.9145 104.569 16.037 104.147 16.1264 103.718C16.2468 103.137 16.307 102.545 16.3062 101.952C16.0442 102.463 15.7048 102.93 15.3 103.337C14.9877 103.665 14.6331 103.95 14.2454 104.184C13.0429 103.455 12.0017 102.488 11.1852 101.343C11.2371 101.216 11.289 101.088 11.3374 100.96C11.5885 100.292 11.7873 99.6056 11.9321 98.9069C12.1286 97.9623 12.2271 96.9999 12.226 96.035C11.7997 96.8664 11.2468 97.6265 10.587 98.2883C10.3892 98.4998 10.1791 98.6995 9.95772 98.8862C9.6149 97.8456 9.48237 96.7473 9.56784 95.655C9.65332 94.5628 9.95509 93.4984 10.4556 92.5237C11.8249 89.994 14.4805 88.4906 16.8457 86.8559C19.2142 85.2213 21.5828 83.0094 21.7834 80.1375C21.9182 78.1987 21.0192 76.2565 21.3788 74.3488C21.5301 73.5443 21.8993 72.7968 22.4463 72.1875C22.9933 71.5783 23.697 71.1308 24.4809 70.8938C25.2648 70.6568 26.0988 70.6393 26.8919 70.8432C27.6851 71.0472 28.407 71.4648 28.9791 72.0505C27.6374 73.9513 26.3027 75.9178 25.7599 78.178C25.2066 80.4797 25.6596 83.1788 27.4749 84.7029C28.0973 85.2282 28.8615 85.6014 29.3421 86.258C29.9818 87.129 29.9853 88.2902 30.089 89.3615C30.2965 91.4455 30.9777 93.4499 31.3442 95.5131C31.7142 97.5729 31.7349 99.8089 30.7114 101.637Z" fill="#2F2E41"/>
<path d="M6.32765 187.34L9.48354 189.777L20.3902 178.771L15.7324 175.174L6.32765 187.34Z" fill="#A0616A"/>
<path d="M6.46191 184.959L11.6806 188.514L10.0291 190.65L12.2408 197.587C12.3501 197.929 12.347 198.298 12.2319 198.639C12.1167 198.979 11.8957 199.274 11.601 199.48C11.3062 199.687 10.9533 199.793 10.5936 199.785C10.2339 199.776 9.8864 199.653 9.60173 199.433L3.66266 194.847L4.27256 191.943L2.23927 193.747L9.05991e-06 192.018L6.46191 184.959Z" fill="#2F2E41"/>
<path d="M22.3384 78.5467C22.3379 79.779 22.6402 80.9926 23.2185 82.081C23.7969 83.1694 24.6338 84.0992 25.6556 84.7888C26.6775 85.4785 27.8531 85.9069 29.0793 86.0364C30.3054 86.166 31.5447 85.9927 32.6882 85.5318C33.8318 85.0709 34.8446 84.3365 35.6379 83.393C36.4311 82.4496 36.9805 81.3259 37.2378 80.1207C37.4952 78.9155 37.4526 77.6655 37.1137 76.4806C36.7749 75.2957 36.1502 74.212 35.2946 73.3247L35.2584 73.2886C35.1982 73.2254 35.1379 73.1621 35.0746 73.1019L35.0735 73.1017L35.0725 73.101L35.0718 73.1L35.0716 73.0989C34.9933 73.0266 34.9149 72.9543 34.8336 72.8851C33.5078 71.7227 31.6445 70.4609 29.7433 70.4609C25.5822 70.4609 22.3384 74.3878 22.3384 78.5467Z" fill="#2F2E41"/>
<path d="M65.2734 74.6804C65.3095 75.0819 65.257 75.4865 65.1197 75.8656C64.9824 76.2447 64.7636 76.5891 64.4787 76.8745C64.1939 77.1599 63.8498 77.3795 63.4709 77.5177C63.0919 77.6558 62.6873 77.7093 62.2855 77.6742L43.6327 94.5068L40.4228 89.4398L59.7672 74.4872C59.8708 73.8164 60.2171 73.2069 60.7403 72.7742C61.2635 72.3414 61.9274 72.1156 62.6061 72.1394C63.2848 72.1632 63.9312 72.435 64.4228 72.9033C64.9144 73.3717 65.2171 74.004 65.2734 74.6804Z" fill="#A0616A"/>
<path d="M35.6608 99.5868C35.6608 99.5868 36.3548 100.868 38.7255 98.8898C40.6234 97.3061 49.7161 90.4308 51.675 87.6134C52.1223 87.7906 52.6158 87.8139 53.0778 87.6798C53.5399 87.5457 53.9442 87.2618 54.227 86.8728L48.8598 82.1748C47.2539 82.3596 47.2883 83.4378 47.4556 84.0499L43.407 85.8833L32.9524 92.561L35.1427 98.6697L35.6608 99.5868Z" fill="#F4CE14"/>
<path d="M25.5327 111.39L25.1417 113.251L24.8098 120.114L39.4251 120.917L38.9712 110.361L37.5545 108.034L25.5327 111.39Z" fill="#A0616A"/>
<path d="M31.7269 86.6018C35.2154 86.6018 38.0433 83.7754 38.0433 80.2887C38.0433 76.8021 35.2154 73.9756 31.7269 73.9756C28.2384 73.9756 25.4104 76.8021 25.4104 80.2887C25.4104 83.7754 28.2384 86.6018 31.7269 86.6018Z" fill="#A0616A"/>
<path d="M20.5128 103.574L20.4739 98.326C20.473 96.4378 21.1123 94.605 22.2876 93.1267C23.4628 91.6483 25.1046 90.6116 26.9451 90.1856L26.9689 90.1801L28.2179 88.498L33.2924 89.0054L34.2225 90.9053L37.8995 93.0936L39.3152 97.6422C39.9293 98.0513 40.4526 98.5822 40.8527 99.2019C41.2528 99.8217 41.5211 100.517 41.6409 101.245C42.1216 104.313 39.972 107.384 39.7163 107.736L39.0575 111.444L24.7255 113.972L24.6091 113.986L20.5128 103.574Z" fill="#F4CE14"/>
<path d="M39.4562 79.1624C38.7195 79.6288 37.955 80.0501 37.1671 80.4239C36.3675 80.8078 35.5311 81.11 34.6706 81.3259C34.4244 80.786 34.1232 80.273 33.7716 79.7949C33.862 80.3614 33.8644 80.9384 33.7785 81.5056C32.3523 81.7356 30.8916 81.6158 29.5219 81.1565L28.3325 79.1624L28.2426 81.3881C27.2571 81.5678 26.2751 81.7372 25.2896 81.9134C25.2308 81.9203 25.172 81.9341 25.1167 81.9445C24.5047 79.1866 25.3726 76.1488 27.302 74.3103C28.26 73.407 29.455 72.7942 30.7479 72.5434C32.0408 72.2925 33.3784 72.4139 34.6049 72.8933C34.7605 72.9555 34.9196 73.0246 35.0717 73.0972L35.072 73.0986L35.0727 73.0997L35.0738 73.1004L35.0752 73.1007C35.1651 73.1456 35.2411 73.2527 35.3414 73.2424C39.6568 72.762 39.7951 76.1073 39.4562 79.1624Z" fill="#2F2E41"/>
<path d="M28.9482 179.2L32.109 181.63L42.9936 170.602L38.3287 167.015L28.9482 179.2Z" fill="#A0616A"/>
<path d="M29.3643 177.038L34.5901 180.583L32.9429 182.722L35.1687 189.654C35.2787 189.997 35.2763 190.365 35.1618 190.706C35.0474 191.047 34.827 191.342 34.5326 191.549C34.2383 191.756 33.8856 191.863 33.5259 191.856C33.1662 191.848 32.8184 191.725 32.5333 191.506L26.585 186.931L27.189 184.027L25.1594 185.835L22.9166 184.11L29.3643 177.038Z" fill="#2F2E41"/>
<path d="M18.6918 165.74L18.6916 165.699L20.1896 163.119L18.66 159.76L18.6141 151.132L18.862 149.836C19.1955 148.094 19.0985 146.297 18.5793 144.601L18.5514 139.349C18.4977 138.033 20.537 136.876 20.0614 135.779C15.5663 125.411 24.6517 117.502 24.713 117.438L24.8987 117.245L25.9061 118.008L26.8649 118.009L39.8034 120.365L39.8969 120.539C40.4057 121.493 41.3879 124.782 41.4461 126.27C42.091 127.016 49.4362 135.511 50.0891 136.101C54.5015 140.091 57.0277 146.696 58.1408 150.277C58.4173 151.163 58.473 152.102 58.3031 153.014C58.1333 153.925 57.743 154.782 57.1663 155.508L40.4624 173.794L35.9673 169.647L45.0056 153.186L44.3538 151.516C43.1844 151.3 42.1261 150.686 41.3595 149.777L39.5293 147.606C39.0225 147.006 38.7005 146.273 38.6022 145.494L37.4923 145.361L33.5167 141.189L30.7584 166.154L30.0085 168.127L16.9494 183.471L11.4169 180.015L18.6918 165.74Z" fill="#2F2E41"/>
<path d="M16.6974 58.5407C16.4465 58.8564 16.2679 59.2232 16.1742 59.6154C16.0805 60.0075 16.074 60.4154 16.155 60.8103C16.2361 61.2053 16.4029 61.5776 16.6435 61.9012C16.8841 62.2248 17.1928 62.4917 17.5479 62.6831L13.3953 74.9701L16.7861 87.9911L22.2537 85.5206L18.8798 75.6992L21.404 61.4034C21.6862 60.786 21.7321 60.0866 21.5328 59.4377C21.3336 58.7888 20.9031 58.2355 20.3229 57.8826C19.7428 57.5298 19.0532 57.4019 18.385 57.5231C17.7168 57.6444 17.1164 58.0065 16.6974 58.5407Z" fill="#A0616A"/>
<path d="M21.7022 98.7195C21.7022 98.7195 20.418 99.4087 19.5249 96.454C18.8099 94.0885 13.944 81.2449 13.8563 77.8152C13.3852 77.7176 12.96 77.466 12.6477 77.1002C12.3354 76.7345 12.1537 76.2752 12.1313 75.7949L19.1985 74.8174C20.4386 75.8537 19.8171 76.7357 19.3408 77.1553L21.7478 81.2303L26.7789 92.2315L22.6393 98.2378L21.7022 98.7195Z" fill="#F4CE14"/>
<path d="M25.2882 81.9132C26.0139 79.7258 27.3153 77.7738 29.0558 76.2621C30.7962 74.7504 32.9116 73.7347 35.1801 73.3215C35.1891 73.3185 35.2193 73.3065 35.2584 73.2884C35.2825 73.2733 35.3127 73.2583 35.3428 73.2432C35.2524 73.192 35.165 73.1469 35.0746 73.1017L35.0735 73.1015L35.0725 73.1008L35.0718 73.0998L35.0716 73.0987C34.9933 73.0264 34.9149 72.9541 34.8336 72.8848L34.6046 72.8939C34.6046 72.8939 26.5567 71.62 25.2882 81.9132Z" fill="#FD6584"/>
<path d="M129.135 152.263C130.013 150.944 129.494 149.055 127.974 148.044C126.454 147.034 124.51 147.284 123.632 148.604C122.754 149.923 123.273 151.812 124.793 152.823C126.313 153.833 128.257 153.583 129.135 152.263Z" fill="#F2F2F2"/>
<path d="M111.305 103.014C112.184 101.695 111.664 99.8059 110.144 98.7954C108.624 97.7849 106.68 98.0354 105.802 99.3549C104.924 100.674 105.444 102.563 106.963 103.574C108.483 104.584 110.427 104.334 111.305 103.014Z" fill="#F2F2F2"/>
<path d="M185.866 178.832C186.745 177.512 186.225 175.623 184.705 174.613C183.186 173.602 181.242 173.853 180.363 175.172C179.485 176.492 180.005 178.381 181.525 179.391C183.044 180.402 184.988 180.151 185.866 178.832Z" fill="#F2F2F2"/>
<path d="M35.1231 20.3922C36.0015 19.0727 35.4816 17.1839 33.9619 16.1734C32.4423 15.1629 30.4983 15.4134 29.62 16.7329C28.7416 18.0524 29.2615 19.9412 30.7812 20.9517C32.3008 21.9622 34.2448 21.7117 35.1231 20.3922Z" fill="#F2F2F2"/>
<path d="M105.47 4.83947C106.348 3.51996 105.828 1.63112 104.309 0.620619C102.789 -0.389878 100.845 -0.139377 99.9669 1.18014C99.0885 2.49965 99.6084 4.38851 101.128 5.399C102.648 6.4095 104.592 6.15898 105.47 4.83947Z" fill="#F2F2F2"/>
<path d="M72.1767 135.322C73.0551 134.002 72.5352 132.114 71.0155 131.103C69.4959 130.093 67.5519 130.343 66.6736 131.663C65.7952 132.982 66.3151 134.871 67.8348 135.881C69.3544 136.892 71.2984 136.641 72.1767 135.322Z" fill="#E6E6E6"/>
<path d="M217.287 204H6.4749C6.37272 204 6.27483 203.959 6.20268 203.887C6.13054 203.814 6.09002 203.716 6.09002 203.614C6.09002 203.512 6.13054 203.414 6.20268 203.342C6.27483 203.27 6.37272 203.229 6.4749 203.229H217.287C217.389 203.229 217.487 203.269 217.56 203.341C217.632 203.414 217.673 203.512 217.673 203.614C217.673 203.717 217.632 203.815 217.56 203.887C217.487 203.959 217.389 204 217.287 204Z" fill="#CCCCCC"/>
<path d="M45.7121 75.87C43.9387 75.8649 42.2295 75.2067 40.9111 74.0214C39.5927 72.836 38.7577 71.2067 38.5655 69.4447L34.45 31.242C34.2478 29.3452 34.8066 27.4457 36.0039 25.9602C37.2012 24.4748 38.9392 23.5247 40.8365 23.3184L163.037 10.1676C164.935 9.96536 166.836 10.5239 168.322 11.7205C169.808 12.9171 170.759 14.6542 170.965 16.5506L175.081 54.7531C175.283 56.65 174.724 58.5496 173.527 60.0351C172.33 61.5206 170.592 62.4708 168.694 62.6771L46.4935 75.8279C46.234 75.8559 45.9731 75.87 45.7121 75.87Z" fill="#E6E6E6"/>
<path d="M161.691 11.9414C161.462 11.9415 161.232 11.9539 161.004 11.9784L43.2092 24.6551C42.3855 24.7437 41.5874 24.9936 40.8604 25.3906C40.1334 25.7875 39.4917 26.3237 38.972 26.9684C38.4523 27.6132 38.0647 28.354 37.8315 29.1485C37.5982 29.943 37.5238 30.7756 37.6125 31.5988L39.6934 50.9145C40.0297 54.0371 40.9782 57.0629 42.4845 59.8192C43.9909 62.5755 46.0257 65.0082 48.4728 66.9785C50.9198 68.9488 53.7312 70.418 56.7464 71.3024C59.7616 72.1867 62.9215 72.4688 66.0457 72.1326L148.875 63.2187C151.99 62.8835 155.008 61.9384 157.757 60.4374C160.507 58.9364 162.933 56.9089 164.899 54.4705C166.864 52.0322 168.33 49.2309 169.212 46.2265C170.094 43.222 170.375 40.0734 170.04 36.9603L167.951 17.5722C167.785 16.0278 167.054 14.5992 165.899 13.5602C164.744 12.5211 163.245 11.9447 161.691 11.9414Z" fill="white"/>
<path d="M136.885 32.0438L71.0484 39.129C70.8601 39.1495 70.6697 39.1327 70.4879 39.0796C70.3062 39.0265 70.1367 38.9381 69.9891 38.8194C69.8416 38.7008 69.7189 38.5543 69.628 38.3882C69.5372 38.2221 69.48 38.0398 69.4597 37.8516C69.4395 37.6634 69.4565 37.4731 69.5099 37.2915C69.5633 37.1099 69.652 36.9407 69.7709 36.7933C69.8897 36.646 70.0365 36.5236 70.2028 36.433C70.3691 36.3425 70.5516 36.2855 70.7399 36.2655L136.577 29.1804C136.765 29.1598 136.956 29.1766 137.137 29.2297C137.319 29.2828 137.489 29.3712 137.636 29.4899C137.784 29.6085 137.906 29.7551 137.997 29.9211C138.088 30.0872 138.145 30.2695 138.166 30.4577C138.186 30.6459 138.169 30.8362 138.115 31.0178C138.062 31.1994 137.973 31.3687 137.854 31.516C137.736 31.6633 137.589 31.7857 137.423 31.8763C137.256 31.9669 137.074 32.0238 136.885 32.0438Z" fill="#F4CE14"/>
<path d="M137.832 40.8317L71.9951 47.9169C71.6152 47.9577 71.2346 47.8461 70.937 47.6065C70.6395 47.3669 70.4493 47.019 70.4084 46.6393C70.3675 46.2596 70.4792 45.8792 70.7189 45.5818C70.9586 45.2844 71.3067 45.0943 71.6866 45.0534L137.524 37.9682C137.904 37.9274 138.284 38.039 138.582 38.2786C138.879 38.5182 139.07 38.8661 139.11 39.2458C139.151 39.6255 139.04 40.0059 138.8 40.3033C138.56 40.6007 138.212 40.7908 137.832 40.8317Z" fill="#F4CE14"/>
<path d="M80.6142 55.8787L72.9418 56.7044C72.5619 56.7453 72.1813 56.6337 71.8838 56.3941C71.5862 56.1545 71.396 55.8066 71.3551 55.4269C71.3142 55.0471 71.4259 54.6667 71.6656 54.3693C71.9053 54.0719 72.2534 53.8819 72.6334 53.841L80.3057 53.0153C80.494 52.9948 80.6844 53.0116 80.8662 53.0647C81.0479 53.1178 81.2174 53.2062 81.365 53.3248C81.5125 53.4435 81.6352 53.59 81.726 53.7561C81.8169 53.9222 81.8741 54.1045 81.8943 54.2927C81.9146 54.4808 81.8976 54.6712 81.8442 54.8528C81.7908 55.0343 81.7021 55.2036 81.5832 55.3509C81.4643 55.4982 81.3176 55.6207 81.1513 55.7112C80.985 55.8018 80.8025 55.8587 80.6142 55.8787Z" fill="#F4CE14"/>
<path d="M43.1216 32.8541C44.5539 32.8541 45.7151 31.6935 45.7151 30.262C45.7151 28.8304 44.5539 27.6699 43.1216 27.6699C41.6893 27.6699 40.5282 28.8304 40.5282 30.262C40.5282 31.6935 41.6893 32.8541 43.1216 32.8541Z" fill="#3F3D56"/>
<path d="M159.178 19.8941C160.61 19.8941 161.771 18.7336 161.771 17.302C161.771 15.8705 160.61 14.71 159.178 14.71C157.746 14.71 156.584 15.8705 156.584 17.302C156.584 18.7336 157.746 19.8941 159.178 19.8941Z" fill="#3F3D56"/>
<path d="M124.116 73.108C123.877 72.8988 123.689 72.6392 123.563 72.348C123.438 72.0568 123.379 71.7414 123.391 71.4246C123.521 67.6596 122.901 63.9064 121.566 60.3834C121.452 60.0873 121.407 59.7696 121.432 59.4536C121.457 59.1376 121.552 58.8311 121.71 58.5564C121.862 58.2924 122.07 58.0649 122.319 57.8897C122.568 57.7145 122.853 57.5959 123.152 57.5423C126.167 55.7242 129.257 55.2138 132.339 56.0256C132.836 55.9525 133.343 56.0588 133.768 56.3255C134.194 56.5922 134.511 57.0018 134.661 57.4807C135.909 61.5295 136.603 65.7284 136.725 69.9632C136.736 70.4712 136.564 70.9664 136.24 71.3577C135.915 71.7491 135.461 72.0104 134.959 72.0936L125.839 73.5996C125.533 73.6507 125.22 73.6331 124.922 73.5481C124.624 73.463 124.348 73.3127 124.116 73.108Z" fill="#F4CE14"/>
<path d="M124.926 62.1385L132.602 60.871C132.665 60.8607 132.726 60.8381 132.78 60.8044C132.834 60.7708 132.881 60.7267 132.919 60.6748C132.956 60.6229 132.983 60.5641 132.997 60.5019C133.012 60.4396 133.014 60.3751 133.004 60.3121C132.993 60.249 132.97 60.1886 132.937 60.1344C132.903 60.0801 132.859 60.033 132.807 59.9959C132.754 59.9587 132.696 59.9322 132.633 59.9178C132.571 59.9034 132.506 59.9014 132.443 59.912L124.767 61.1795C124.64 61.2008 124.527 61.2715 124.452 61.3762C124.377 61.4809 124.347 61.611 124.368 61.738C124.389 61.865 124.459 61.9785 124.564 62.0536C124.668 62.1286 124.799 62.1592 124.926 62.1385Z" fill="white"/>
<path d="M125.56 65.9743L133.236 64.7067C133.363 64.6857 133.477 64.6151 133.552 64.5103C133.627 64.4055 133.658 64.2752 133.637 64.148C133.615 64.0208 133.545 63.9072 133.44 63.8321C133.335 63.7571 133.205 63.7267 133.077 63.7477L125.401 65.0152C125.338 65.0255 125.278 65.0481 125.223 65.0818C125.169 65.1154 125.122 65.1595 125.084 65.2114C125.047 65.2633 125.02 65.3221 125.006 65.3843C124.991 65.4466 124.989 65.5111 125 65.5741C125.01 65.6372 125.033 65.6976 125.067 65.7519C125.1 65.8061 125.145 65.8532 125.197 65.8903C125.249 65.9275 125.308 65.954 125.37 65.9684C125.432 65.9828 125.497 65.9848 125.56 65.9743Z" fill="white"/>
<path d="M126.194 69.8112L133.87 68.5436C133.997 68.5226 134.111 68.452 134.186 68.3472C134.261 68.2424 134.292 68.1121 134.271 67.9849C134.25 67.8577 134.179 67.7441 134.074 67.6691C133.969 67.594 133.839 67.5636 133.712 67.5846L126.035 68.8521C125.972 68.8625 125.912 68.8852 125.858 68.919C125.804 68.9527 125.757 68.9967 125.719 69.0486C125.682 69.1005 125.656 69.1592 125.641 69.2213C125.627 69.2835 125.624 69.3479 125.635 69.4109C125.645 69.4738 125.668 69.5342 125.702 69.5883C125.735 69.6425 125.78 69.6896 125.831 69.7267C125.883 69.7639 125.942 69.7905 126.004 69.805C126.066 69.8195 126.131 69.8216 126.194 69.8112Z" fill="white"/>
</g>
<defs>
<clipPath id="clip0_56_3058">
<rect width="237" height="204" fill="white"/>
</clipPath>
</defs>
</svg>
