<svg width="34" height="34" viewBox="0 0 34 34" fill="none" xmlns="http://www.w3.org/2000/svg">
<circle cx="17" cy="17" r="16" stroke="#45474B" stroke-width="2"/>
<path d="M17 14.7503C16.1759 14.7503 15.3703 14.506 14.6851 14.0481C13.9999 13.5903 13.4659 12.9395 13.1505 12.1782C12.8351 11.4168 12.7526 10.579 12.9134 9.77078C13.0742 8.96253 13.471 8.2201 14.0537 7.63738C14.6364 7.05466 15.3789 6.65783 16.1871 6.49706C16.9954 6.33628 17.8332 6.4188 18.5945 6.73416C19.3559 7.04953 20.0066 7.58358 20.4645 8.26878C20.9223 8.95399 21.1667 9.75957 21.1667 10.5837C21.1667 11.6887 20.7277 12.7485 19.9463 13.5299C19.1649 14.3113 18.1051 14.7503 17 14.7503ZM17 8.08366C16.5055 8.08366 16.0222 8.23028 15.6111 8.50499C15.2 8.77969 14.8795 9.17014 14.6903 9.62695C14.5011 10.0838 14.4516 10.5864 14.548 11.0714C14.6445 11.5563 14.8826 12.0018 15.2322 12.3514C15.5819 12.7011 16.0273 12.9392 16.5123 13.0356C16.9972 13.1321 17.4999 13.0826 17.9567 12.8934C18.4135 12.7041 18.804 12.3837 19.0787 11.9726C19.3534 11.5615 19.5 11.0781 19.5 10.5837C19.5 9.92062 19.2366 9.28473 18.7678 8.81589C18.2989 8.34705 17.663 8.08366 17 8.08366Z" fill="#45474B"/>
<path d="M24.5 25.583H9.5C9.27899 25.583 9.06703 25.4952 8.91075 25.3389C8.75447 25.1827 8.66667 24.9707 8.66667 24.7497V22.2497C8.66667 20.4816 9.36905 18.7859 10.6193 17.5356C11.8695 16.2854 13.5652 15.583 15.3333 15.583H18.6667C20.4348 15.583 22.1305 16.2854 23.3807 17.5356C24.631 18.7859 25.3333 20.4816 25.3333 22.2497V24.7497C25.3333 24.9707 25.2455 25.1827 25.0893 25.3389C24.933 25.4952 24.721 25.583 24.5 25.583ZM10.3333 23.9163H23.6667V22.2497C23.6667 20.9236 23.1399 19.6518 22.2022 18.7141C21.2645 17.7765 19.9928 17.2497 18.6667 17.2497H15.3333C14.0073 17.2497 12.7355 17.7765 11.7978 18.7141C10.8601 19.6518 10.3333 20.9236 10.3333 22.2497V23.9163Z" fill="#45474B"/>
</svg>
