<svg width="18" height="18" viewBox="0 0 18 18" fill="none" xmlns="http://www.w3.org/2000/svg">
<circle cx="9" cy="9" r="8" stroke="#45474B" stroke-width="2"/>
<g clip-path="url(#clip0_53_580)">
<path d="M9.00007 7.80883C8.56379 7.80883 8.13731 7.67946 7.77455 7.43707C7.41179 7.19469 7.12906 6.85017 6.9621 6.4471C6.79515 6.04403 6.75146 5.6005 6.83658 5.1726C6.92169 4.7447 7.13178 4.35165 7.44028 4.04315C7.74878 3.73465 8.14183 3.52457 8.56973 3.43945C8.99763 3.35434 9.44115 3.39802 9.84423 3.56498C10.2473 3.73194 10.5918 4.01467 10.8342 4.37742C11.0766 4.74018 11.206 5.16667 11.206 5.60295C11.206 6.18798 10.9735 6.74906 10.5599 7.16274C10.1462 7.57642 9.58511 7.80883 9.00007 7.80883ZM9.00007 4.27942C8.7383 4.27942 8.48241 4.35704 8.26476 4.50247C8.04711 4.6479 7.87747 4.85461 7.77729 5.09645C7.67712 5.3383 7.65091 5.60442 7.70197 5.86116C7.75304 6.11789 7.8791 6.35372 8.0642 6.53882C8.24929 6.72392 8.48513 6.84998 8.74186 6.90105C8.9986 6.95211 9.26472 6.9259 9.50657 6.82573C9.74841 6.72555 9.95512 6.55591 10.1005 6.33826C10.246 6.12061 10.3236 5.86472 10.3236 5.60295C10.3236 5.25193 10.1842 4.91528 9.93595 4.66707C9.68774 4.41886 9.35109 4.27942 9.00007 4.27942Z" fill="#45474B"/>
<path d="M12.9706 13.5441H5.02943C4.91243 13.5441 4.80021 13.4976 4.71747 13.4149C4.63474 13.3322 4.58826 13.2199 4.58826 13.1029V11.7794C4.58826 10.8434 4.9601 9.94563 5.622 9.28374C6.28389 8.62185 7.18161 8.25 8.11767 8.25H9.88237C10.8184 8.25 11.7162 8.62185 12.378 9.28374C13.0399 9.94563 13.4118 10.8434 13.4118 11.7794V13.1029C13.4118 13.2199 13.3653 13.3322 13.2826 13.4149C13.1998 13.4976 13.0876 13.5441 12.9706 13.5441ZM5.47061 12.6618H12.5294V11.7794C12.5294 11.0774 12.2505 10.4041 11.7541 9.90766C11.2577 9.41124 10.5844 9.13235 9.88237 9.13235H8.11767C7.41562 9.13235 6.74234 9.41124 6.24592 9.90766C5.7495 10.4041 5.47061 11.0774 5.47061 11.7794V12.6618Z" fill="#45474B"/>
</g>
<defs>
<clipPath id="clip0_53_580">
<rect width="10.5882" height="10.5882" fill="white" transform="translate(3.70593 3.17648)"/>
</clipPath>
</defs>
</svg>
