<svg width="32" height="32" viewBox="0 0 32 32" fill="none" xmlns="http://www.w3.org/2000/svg">
<path d="M16 29.3334C8.63622 29.3334 2.66669 23.3638 2.66669 16.0001C2.66669 8.63628 8.63622 2.66675 16 2.66675C23.3638 2.66675 29.3334 8.63628 29.3334 16.0001C29.3334 23.3638 23.3638 29.3334 16 29.3334ZM16 26.6667C21.8911 26.6667 26.6667 21.8911 26.6667 16.0001C26.6667 10.109 21.8911 5.33341 16 5.33341C10.109 5.33341 5.33335 10.109 5.33335 16.0001C5.33335 21.8911 10.109 26.6667 16 26.6667ZM16 14.1145L19.7712 10.3432L21.6568 12.2288L17.8856 16.0001L21.6568 19.7713L19.7712 21.6569L16 17.8857L12.2288 21.6569L10.3432 19.7713L14.1144 16.0001L10.3432 12.2288L12.2288 10.3432L16 14.1145Z" fill="#495E57"/>
</svg>
