<svg width="28" height="28" viewBox="0 0 28 28" fill="none" xmlns="http://www.w3.org/2000/svg">
<g clip-path="url(#clip0_56_5227)">
<mask id="mask0_56_5227" style="mask-type:luminance" maskUnits="userSpaceOnUse" x="0" y="0" width="28" height="28">
<path d="M27.483 11.4546H14.4375V16.8636H21.9466C21.2466 20.3 18.3193 22.2727 14.4375 22.2727C9.85569 22.2727 6.16478 18.5818 6.16478 14C6.16478 9.41819 9.85569 5.72728 14.4375 5.72728C16.4102 5.72728 18.1921 6.42728 19.5921 7.57273L23.6648 3.5C21.183 1.33636 18.0011 0 14.4375 0C6.67387 0 0.4375 6.23637 0.4375 14C0.4375 21.7636 6.67387 28 14.4375 28C21.4375 28 27.8011 22.9091 27.8011 14C27.8011 13.1727 27.6739 12.2818 27.483 11.4546Z" fill="white"/>
</mask>
<g mask="url(#mask0_56_5227)">
<path d="M-0.835228 22.273V5.72754L9.98296 14.0003L-0.835228 22.273Z" fill="#FBBC05"/>
</g>
<mask id="mask1_56_5227" style="mask-type:luminance" maskUnits="userSpaceOnUse" x="0" y="0" width="28" height="28">
<path d="M27.483 11.4546H14.4375V16.8636H21.9466C21.2466 20.3 18.3193 22.2727 14.4375 22.2727C9.85569 22.2727 6.16478 18.5818 6.16478 14C6.16478 9.41819 9.85569 5.72728 14.4375 5.72728C16.4102 5.72728 18.1921 6.42728 19.5921 7.57273L23.6648 3.5C21.183 1.33636 18.0011 0 14.4375 0C6.67387 0 0.4375 6.23637 0.4375 14C0.4375 21.7636 6.67387 28 14.4375 28C21.4375 28 27.8011 22.9091 27.8011 14C27.8011 13.1727 27.6739 12.2818 27.483 11.4546Z" fill="white"/>
</mask>
<g mask="url(#mask1_56_5227)">
<path d="M-0.835228 5.72754L9.98296 14.0003L14.4375 10.1185L29.7102 7.63663V-1.27246H-0.835228V5.72754Z" fill="#EA4335"/>
</g>
<mask id="mask2_56_5227" style="mask-type:luminance" maskUnits="userSpaceOnUse" x="0" y="0" width="28" height="28">
<path d="M27.483 11.4546H14.4375V16.8636H21.9466C21.2466 20.3 18.3193 22.2727 14.4375 22.2727C9.85569 22.2727 6.16478 18.5818 6.16478 14C6.16478 9.41819 9.85569 5.72728 14.4375 5.72728C16.4102 5.72728 18.1921 6.42728 19.5921 7.57273L23.6648 3.5C21.183 1.33636 18.0011 0 14.4375 0C6.67387 0 0.4375 6.23637 0.4375 14C0.4375 21.7636 6.67387 28 14.4375 28C21.4375 28 27.8011 22.9091 27.8011 14C27.8011 13.1727 27.6739 12.2818 27.483 11.4546Z" fill="white"/>
</mask>
<g mask="url(#mask2_56_5227)">
<path d="M-0.835228 22.273L18.2557 7.63663L23.283 8.273L29.7102 -1.27246V29.273H-0.835228V22.273Z" fill="#34A853"/>
</g>
<mask id="mask3_56_5227" style="mask-type:luminance" maskUnits="userSpaceOnUse" x="0" y="0" width="28" height="28">
<path d="M27.483 11.4546H14.4375V16.8636H21.9466C21.2466 20.3 18.3193 22.2727 14.4375 22.2727C9.85569 22.2727 6.16478 18.5818 6.16478 14C6.16478 9.41819 9.85569 5.72728 14.4375 5.72728C16.4102 5.72728 18.1921 6.42728 19.5921 7.57273L23.6648 3.5C21.183 1.33636 18.0011 0 14.4375 0C6.67387 0 0.4375 6.23637 0.4375 14C0.4375 21.7636 6.67387 28 14.4375 28C21.4375 28 27.8011 22.9091 27.8011 14C27.8011 13.1727 27.6739 12.2818 27.483 11.4546Z" fill="white"/>
</mask>
<g mask="url(#mask3_56_5227)">
<path d="M29.7102 29.273L9.98296 14.0003L7.4375 12.0912L29.7102 5.72754V29.273Z" fill="#4285F4"/>
</g>
</g>
<defs>
<clipPath id="clip0_56_5227">
<rect width="28" height="28" fill="white"/>
</clipPath>
</defs>
</svg>
