<svg width="30" height="30" viewBox="0 0 30 30" fill="none" xmlns="http://www.w3.org/2000/svg">
<path d="M30 13.1436C30 19.7061 23.2852 25.0234 15 25.0234C14.1844 25.0238 13.3696 24.9711 12.5607 24.8658C12.4344 24.8491 12.3063 24.8784 12.1998 24.9484L6.5748 28.648C6.48593 28.7065 6.38157 28.7369 6.27522 28.7353C6.16887 28.7338 6.06543 28.7004 5.97828 28.6394C5.89113 28.5785 5.82427 28.4928 5.78636 28.3934C5.74845 28.294 5.74123 28.1856 5.76562 28.082L6.83379 23.5621C6.86073 23.4493 6.84972 23.3308 6.80248 23.2248C6.75524 23.1189 6.67439 23.0315 6.57246 22.9762C2.60684 20.8363 0 17.2305 0 13.1436C0 6.58105 6.71602 1.26367 15 1.26367C23.284 1.26367 30 6.58223 30 13.1436Z" fill="#411C1D"/>
<path d="M9.60352 10.2293C9.60321 10.0182 9.51911 9.81577 9.3697 9.66658C9.22029 9.51739 9.01778 9.43359 8.80664 9.43359H4.76016C4.54881 9.43359 4.34612 9.51755 4.19668 9.66699C4.04724 9.81644 3.96328 10.0191 3.96328 10.2305C3.96328 10.4418 4.04724 10.6445 4.19668 10.7939C4.34612 10.9434 4.54881 11.0273 4.76016 11.0273H5.98652V16.1537C5.98652 16.3651 6.07048 16.5677 6.21992 16.7172C6.36937 16.8666 6.57205 16.9506 6.7834 16.9506C6.99474 16.9506 7.19743 16.8666 7.34687 16.7172C7.49632 16.5677 7.58027 16.3651 7.58027 16.1537V11.0262H8.80664C9.01799 11.0262 9.22067 10.9422 9.37012 10.7928C9.51956 10.6433 9.60352 10.4406 9.60352 10.2293Z" fill="#FFF200"/>
<path d="M19.0365 15.3729H17.4205V10.2295C17.4205 10.0181 17.3366 9.81546 17.1871 9.66602C17.0377 9.51657 16.835 9.43262 16.6236 9.43262C16.4123 9.43262 16.2096 9.51657 16.0602 9.66602C15.9107 9.81546 15.8268 10.0181 15.8268 10.2295V16.1721C15.8268 16.2767 15.8474 16.3803 15.8874 16.477C15.9275 16.5737 15.9862 16.6615 16.0602 16.7355C16.1342 16.8095 16.222 16.8682 16.3187 16.9083C16.4154 16.9483 16.519 16.9689 16.6236 16.9689H19.0365C19.2479 16.9689 19.4506 16.885 19.6 16.7355C19.7494 16.5861 19.8334 16.3834 19.8334 16.1721C19.8334 15.9607 19.7494 15.758 19.6 15.6086C19.4506 15.4592 19.2479 15.3752 19.0365 15.3752V15.3729Z" fill="#FFF200"/>
<path d="M21.2437 9.43359C21.1391 9.43359 21.0355 9.45421 20.9388 9.49425C20.8421 9.5343 20.7543 9.593 20.6803 9.66699C20.6063 9.74099 20.5476 9.82884 20.5075 9.92552C20.4675 10.0222 20.4469 10.1258 20.4469 10.2305V16.1525C20.4469 16.3639 20.5308 16.5666 20.6803 16.716C20.8297 16.8655 21.0324 16.9494 21.2437 16.9494C21.4551 16.9494 21.6578 16.8655 21.8072 16.716C21.9567 16.5666 22.0406 16.3639 22.0406 16.1525V10.2293C22.0403 10.0182 21.9562 9.81577 21.8068 9.66658C21.6574 9.51739 21.4549 9.43359 21.2437 9.43359Z" fill="#FFF200"/>
<path d="M25.7479 15.5572L23.4445 12.8326L25.3781 11.0256C25.4546 10.9541 25.5162 10.8683 25.5595 10.773C25.6027 10.6777 25.6268 10.5748 25.6303 10.4702C25.6338 10.3656 25.6167 10.2613 25.5799 10.1633C25.5431 10.0654 25.4874 9.97557 25.4159 9.89913C25.3444 9.82268 25.2586 9.76106 25.1633 9.71779C25.068 9.67452 24.9651 9.65044 24.8605 9.64693C24.7559 9.64342 24.6516 9.66055 24.5537 9.69734C24.4557 9.73413 24.3659 9.78985 24.2895 9.86133L22.043 11.9625V14.1434L22.2773 13.9225L24.5303 16.5856C24.6668 16.7469 24.8618 16.8475 25.0725 16.8651C25.2831 16.8826 25.4921 16.8158 25.6535 16.6793C25.8149 16.5428 25.9154 16.3477 25.933 16.1371C25.9506 15.9264 25.8838 15.7174 25.7473 15.5561L25.7479 15.5572Z" fill="#FFF200"/>
<path d="M12.9809 10.1633C12.6211 9.25332 11.3338 9.25098 10.9705 10.1598L8.67188 15.9143C8.59356 16.1106 8.59641 16.33 8.6798 16.5243C8.76319 16.7185 8.9203 16.8717 9.1166 16.9502C9.31287 17.0285 9.53221 17.0256 9.72637 16.9422C9.92053 16.8588 10.0736 16.7017 10.152 16.5055L10.5469 15.5135H13.3834L13.7754 16.5025C13.8138 16.5998 13.8711 16.6886 13.9438 16.7637C14.0166 16.8389 14.1035 16.8989 14.1994 16.9405C14.2954 16.9821 14.3987 17.0043 14.5033 17.006C14.6078 17.0077 14.7117 16.9887 14.809 16.9502C14.9063 16.9117 14.9951 16.8545 15.0703 16.7817C15.1455 16.7089 15.2056 16.622 15.2472 16.5259C15.2888 16.4299 15.311 16.3266 15.3126 16.2219C15.3143 16.1173 15.2952 16.0133 15.2566 15.916L12.9809 10.1633ZM11.1844 13.9197L11.9725 11.9469L12.7535 13.9197H11.1844Z" fill="#FFF200"/>
</svg>
