<svg width="182" height="32" viewBox="0 0 182 32" fill="none" xmlns="http://www.w3.org/2000/svg">
<path d="M12.16 31.4C9.94667 31.4 7.82667 30.96 5.8 30.08C3.77333 29.1733 1.98667 27.88 0.44 26.2L2.48 24.08C3.92 25.6267 5.45333 26.7867 7.08 27.56C8.73333 28.3333 10.4667 28.72 12.28 28.72C13.7467 28.72 15.04 28.4933 16.16 28.04C17.3067 27.56 18.2 26.9067 18.84 26.08C19.48 25.2267 19.8 24.2667 19.8 23.2C19.8 21.76 19.2933 20.6533 18.28 19.88C17.2933 19.1067 15.6533 18.5333 13.36 18.16L9.32 17.52C6.62667 17.0667 4.64 16.2667 3.36 15.12C2.08 13.9733 1.44 12.4133 1.44 10.44C1.44 8.89333 1.85333 7.53333 2.68 6.36C3.50667 5.18667 4.65333 4.28 6.12 3.64C7.61333 2.97333 9.33333 2.64 11.28 2.64C13.2533 2.64 15.1867 2.96 17.08 3.6C19 4.24 20.7467 5.16 22.32 6.36L20.56 8.76C17.4933 6.44 14.36 5.28 11.16 5.28C9.82667 5.28 8.65333 5.49333 7.64 5.92C6.62667 6.32 5.84 6.89333 5.28 7.64C4.72 8.36 4.44 9.21333 4.44 10.2C4.44 11.5067 4.88 12.5067 5.76 13.2C6.64 13.8933 8.09333 14.4 10.12 14.72L14.12 15.36C17.1867 15.8667 19.4133 16.7333 20.8 17.96C22.1867 19.16 22.88 20.8533 22.88 23.04C22.88 24.6667 22.4267 26.12 21.52 27.4C20.6133 28.6533 19.3467 29.64 17.72 30.36C16.12 31.0533 14.2667 31.4 12.16 31.4ZM34.1844 31.4C32.6644 31.4 31.3177 31.08 30.1444 30.44C28.971 29.7733 28.051 28.8667 27.3844 27.72C26.7444 26.5467 26.4244 25.1867 26.4244 23.64V10.96H29.3444V23.04C29.3444 24.8267 29.851 26.24 30.8644 27.28C31.8777 28.2933 33.2377 28.8 34.9444 28.8C36.1444 28.8 37.211 28.5333 38.1444 28C39.1044 27.44 39.8777 26.6667 40.4644 25.68V10.96H43.4244V31H40.4644V28.68C38.891 30.4933 36.7977 31.4 34.1844 31.4ZM48.4575 31V3L51.4175 2.32V13.08C53.1242 11.4533 55.2708 10.64 57.8575 10.64C59.7508 10.64 61.4575 11.1067 62.9775 12.04C64.4975 12.9467 65.6975 14.1733 66.5775 15.72C67.4842 17.2667 67.9375 19.0133 67.9375 20.96C67.9375 22.9067 67.4842 24.6667 66.5775 26.24C65.6975 27.7867 64.4975 29.0267 62.9775 29.96C61.4575 30.8667 59.7375 31.32 57.8175 31.32C56.6442 31.32 55.4975 31.12 54.3775 30.72C53.2842 30.32 52.2842 29.7467 51.3775 29V31H48.4575ZM57.5775 28.72C58.9908 28.72 60.2575 28.3867 61.3775 27.72C62.4975 27.0267 63.3775 26.1067 64.0175 24.96C64.6842 23.7867 65.0175 22.4667 65.0175 21C65.0175 19.5333 64.6842 18.2133 64.0175 17.04C63.3775 15.8667 62.4975 14.9467 61.3775 14.28C60.2575 13.5867 58.9908 13.24 57.5775 13.24C56.3242 13.24 55.1508 13.4933 54.0575 14C52.9908 14.48 52.1108 15.16 51.4175 16.04V25.96C52.1108 26.8133 53.0042 27.4933 54.0975 28C55.1908 28.48 56.3508 28.72 57.5775 28.72ZM78.4513 31.4C76.7979 31.4 75.2379 31.1333 73.7713 30.6C72.3313 30.04 71.0779 29.2667 70.0113 28.28L71.8113 26.36C72.7446 27.2133 73.7713 27.88 74.8913 28.36C76.0113 28.8133 77.1579 29.04 78.3313 29.04C79.9313 29.04 81.2379 28.7067 82.2513 28.04C83.2646 27.3733 83.7713 26.5067 83.7713 25.44C83.7713 24.56 83.4646 23.88 82.8513 23.4C82.2646 22.8933 81.3313 22.5467 80.0513 22.36L76.5713 21.88C74.5713 21.5867 73.0779 20.9867 72.0913 20.08C71.1313 19.1733 70.6513 17.9467 70.6513 16.4C70.6513 15.28 70.9713 14.28 71.6113 13.4C72.2513 12.52 73.1313 11.8267 74.2513 11.32C75.3979 10.8133 76.7046 10.56 78.1713 10.56C79.6379 10.56 81.0113 10.7733 82.2913 11.2C83.5713 11.6267 84.8246 12.2933 86.0513 13.2L84.4913 15.2C83.3713 14.4267 82.2779 13.8667 81.2113 13.52C80.1713 13.1467 79.1046 12.96 78.0113 12.96C76.6246 12.96 75.5046 13.2667 74.6513 13.88C73.7979 14.4933 73.3713 15.2933 73.3713 16.28C73.3713 17.1867 73.6646 17.88 74.2513 18.36C74.8379 18.8133 75.7846 19.1333 77.0913 19.32L80.5713 19.8C82.5713 20.0667 84.0646 20.6533 85.0513 21.56C86.0646 22.4667 86.5713 23.7067 86.5713 25.28C86.5713 26.4267 86.2113 27.4667 85.4913 28.4C84.7713 29.3333 83.7979 30.0667 82.5713 30.6C81.3713 31.1333 79.9979 31.4 78.4513 31.4ZM99.3781 31.36C97.4848 31.36 95.7648 30.9067 94.2181 30C92.6715 29.0667 91.4448 27.8133 90.5381 26.24C89.6315 24.6667 89.1781 22.9067 89.1781 20.96C89.1781 19.0133 89.6315 17.2667 90.5381 15.72C91.4448 14.1467 92.6715 12.8933 94.2181 11.96C95.7648 11.0267 97.4848 10.56 99.3781 10.56C100.845 10.56 102.258 10.84 103.618 11.4C104.978 11.9333 106.178 12.7067 107.218 13.72L105.338 15.88C104.538 15.0267 103.618 14.3867 102.578 13.96C101.565 13.5067 100.511 13.28 99.4181 13.28C98.0581 13.28 96.8181 13.6267 95.6981 14.32C94.6048 14.9867 93.7248 15.9067 93.0581 17.08C92.4181 18.2267 92.0981 19.52 92.0981 20.96C92.0981 22.4 92.4181 23.7067 93.0581 24.88C93.7248 26.0533 94.6181 26.9867 95.7381 27.68C96.8581 28.3467 98.0981 28.68 99.4581 28.68C100.551 28.68 101.578 28.4667 102.538 28.04C103.525 27.6133 104.445 26.9867 105.298 26.16L107.138 28.16C106.071 29.1733 104.871 29.96 103.538 30.52C102.205 31.08 100.818 31.36 99.3781 31.36Z" fill="#F5F7F8"/>
<path d="M110.606 31V3H116.406V25.88H131.726V31H110.606ZM135.363 31V10.16H140.843V31H135.363ZM138.083 7.68C137.23 7.68 136.496 7.37333 135.883 6.76C135.27 6.14667 134.963 5.41333 134.963 4.56C134.963 3.68 135.27 2.94667 135.883 2.36C136.496 1.74667 137.23 1.44 138.083 1.44C138.963 1.44 139.696 1.74667 140.283 2.36C140.896 2.94667 141.203 3.68 141.203 4.56C141.203 5.41333 140.896 6.14667 140.283 6.76C139.696 7.37333 138.963 7.68 138.083 7.68ZM148.329 31V14.72H143.689V10.16H148.329V8.16C148.329 5.81333 149.009 4.02667 150.369 2.8C151.729 1.54667 153.689 0.919999 156.249 0.919999C156.809 0.919999 157.382 0.946665 157.969 0.999998C158.555 1.05333 159.062 1.14667 159.489 1.28V5.88C158.982 5.77333 158.542 5.69333 158.169 5.64C157.795 5.58667 157.382 5.56 156.929 5.56C155.889 5.56 155.102 5.78667 154.569 6.24C154.062 6.66667 153.809 7.34667 153.809 8.28V10.16H159.489V14.72H153.809V31H148.329ZM171.696 31.4C169.616 31.4 167.723 30.92 166.016 29.96C164.336 29 163.003 27.7067 162.016 26.08C161.029 24.4533 160.536 22.6267 160.536 20.6C160.536 18.5733 161.003 16.7467 161.936 15.12C162.896 13.4933 164.189 12.2 165.816 11.24C167.443 10.28 169.256 9.8 171.256 9.8C173.256 9.8 175.029 10.2933 176.576 11.28C178.123 12.2667 179.336 13.6 180.216 15.28C181.123 16.96 181.576 18.8667 181.576 21V22.44H166.136C166.376 23.2667 166.763 24.0133 167.296 24.68C167.856 25.3467 168.536 25.8667 169.336 26.24C170.163 26.6133 171.043 26.8 171.976 26.8C172.909 26.8 173.763 26.6533 174.536 26.36C175.336 26.0667 176.016 25.6533 176.576 25.12L180.176 28.4C178.896 29.44 177.576 30.2 176.216 30.68C174.883 31.16 173.376 31.4 171.696 31.4ZM166.056 18.52H176.176C175.989 17.6933 175.643 16.9733 175.136 16.36C174.656 15.72 174.069 15.2267 173.376 14.88C172.709 14.5067 171.963 14.32 171.136 14.32C170.283 14.32 169.509 14.4933 168.816 14.84C168.123 15.1867 167.536 15.68 167.056 16.32C166.603 16.9333 166.269 17.6667 166.056 18.52Z" fill="#F4CE14"/>
</svg>
