<svg width="28" height="28" viewBox="0 0 28 28" fill="none" xmlns="http://www.w3.org/2000/svg">
<path d="M21.0362 19.3862L26.0327 24.3827L24.3828 26.0326L19.3863 21.0361C17.5898 22.4735 15.3114 23.3333 12.8334 23.3333C7.03737 23.3333 2.33337 18.6293 2.33337 12.8333C2.33337 7.03731 7.03737 2.33331 12.8334 2.33331C18.6294 2.33331 23.3334 7.03731 23.3334 12.8333C23.3334 15.3113 22.4735 17.5897 21.0362 19.3862ZM18.6955 18.5206C20.1221 17.0503 21 15.0448 21 12.8333C21 8.32123 17.3455 4.66665 12.8334 4.66665C8.32129 4.66665 4.66671 8.32123 4.66671 12.8333C4.66671 17.3454 8.32129 21 12.8334 21C15.0449 21 17.0504 20.1221 18.5206 18.6955L18.6955 18.5206Z" fill="#F5F7F8"/>
</svg>
