<svg width="146" height="26" viewBox="0 0 146 26" fill="none" xmlns="http://www.w3.org/2000/svg">
<path d="M9.728 25.32C7.95733 25.32 6.26133 24.968 4.64 24.264C3.01867 23.5387 1.58933 22.504 0.352 21.16L1.984 19.464C3.136 20.7013 4.36267 21.6293 5.664 22.248C6.98667 22.8667 8.37333 23.176 9.824 23.176C10.9973 23.176 12.032 22.9947 12.928 22.632C13.8453 22.248 14.56 21.7253 15.072 21.064C15.584 20.3813 15.84 19.6133 15.84 18.76C15.84 17.608 15.4347 16.7227 14.624 16.104C13.8347 15.4853 12.5227 15.0267 10.688 14.728L7.456 14.216C5.30133 13.8533 3.712 13.2133 2.688 12.296C1.664 11.3787 1.152 10.1307 1.152 8.552C1.152 7.31467 1.48267 6.22667 2.144 5.288C2.80533 4.34933 3.72267 3.624 4.896 3.112C6.09067 2.57867 7.46667 2.312 9.024 2.312C10.6027 2.312 12.1493 2.568 13.664 3.08C15.2 3.592 16.5973 4.328 17.856 5.288L16.448 7.208C13.9947 5.352 11.488 4.424 8.928 4.424C7.86133 4.424 6.92267 4.59467 6.112 4.936C5.30133 5.256 4.672 5.71467 4.224 6.312C3.776 6.888 3.552 7.57067 3.552 8.36C3.552 9.40533 3.904 10.2053 4.608 10.76C5.312 11.3147 6.47467 11.72 8.096 11.976L11.296 12.488C13.7493 12.8933 15.5307 13.5867 16.64 14.568C17.7493 15.528 18.304 16.8827 18.304 18.632C18.304 19.9333 17.9413 21.096 17.216 22.12C16.4907 23.1227 15.4773 23.912 14.176 24.488C12.896 25.0427 11.4133 25.32 9.728 25.32ZM27.3475 25.32C26.1315 25.32 25.0542 25.064 24.1155 24.552C23.1768 24.0187 22.4408 23.2933 21.9075 22.376C21.3955 21.4373 21.1395 20.3493 21.1395 19.112V8.968H23.4755V18.632C23.4755 20.0613 23.8808 21.192 24.6915 22.024C25.5022 22.8347 26.5902 23.24 27.9555 23.24C28.9155 23.24 29.7688 23.0267 30.5155 22.6C31.2835 22.152 31.9022 21.5333 32.3715 20.744V8.968H34.7395V25H32.3715V23.144C31.1128 24.5947 29.4382 25.32 27.3475 25.32ZM38.766 25V2.6L41.134 2.056V10.664C42.4993 9.36267 44.2167 8.712 46.286 8.712C47.8007 8.712 49.166 9.08533 50.382 9.832C51.598 10.5573 52.558 11.5387 53.262 12.776C53.9873 14.0133 54.35 15.4107 54.35 16.968C54.35 18.5253 53.9873 19.9333 53.262 21.192C52.558 22.4293 51.598 23.4213 50.382 24.168C49.166 24.8933 47.79 25.256 46.254 25.256C45.3153 25.256 44.398 25.096 43.502 24.776C42.6273 24.456 41.8273 23.9973 41.102 23.4V25H38.766ZM46.062 23.176C47.1927 23.176 48.206 22.9093 49.102 22.376C49.998 21.8213 50.702 21.0853 51.214 20.168C51.7473 19.2293 52.014 18.1733 52.014 17C52.014 15.8267 51.7473 14.7707 51.214 13.832C50.702 12.8933 49.998 12.1573 49.102 11.624C48.206 11.0693 47.1927 10.792 46.062 10.792C45.0593 10.792 44.1207 10.9947 43.246 11.4C42.3927 11.784 41.6887 12.328 41.134 13.032V20.968C41.6887 21.6507 42.4033 22.1947 43.278 22.6C44.1527 22.984 45.0807 23.176 46.062 23.176ZM62.761 25.32C61.4383 25.32 60.1903 25.1067 59.017 24.68C57.865 24.232 56.8623 23.6133 56.009 22.824L57.449 21.288C58.1957 21.9707 59.017 22.504 59.913 22.888C60.809 23.2507 61.7263 23.432 62.665 23.432C63.945 23.432 64.9903 23.1653 65.801 22.632C66.6117 22.0987 67.017 21.4053 67.017 20.552C67.017 19.848 66.7717 19.304 66.281 18.92C65.8117 18.5147 65.065 18.2373 64.041 18.088L61.257 17.704C59.657 17.4693 58.4623 16.9893 57.673 16.264C56.905 15.5387 56.521 14.5573 56.521 13.32C56.521 12.424 56.777 11.624 57.289 10.92C57.801 10.216 58.505 9.66133 59.401 9.256C60.3183 8.85067 61.3637 8.648 62.537 8.648C63.7103 8.648 64.809 8.81867 65.833 9.16C66.857 9.50133 67.8597 10.0347 68.841 10.76L67.593 12.36C66.697 11.7413 65.8223 11.2933 64.969 11.016C64.137 10.7173 63.2837 10.568 62.409 10.568C61.2997 10.568 60.4037 10.8133 59.721 11.304C59.0383 11.7947 58.697 12.4347 58.697 13.224C58.697 13.9493 58.9317 14.504 59.401 14.888C59.8703 15.2507 60.6277 15.5067 61.673 15.656L64.457 16.04C66.057 16.2533 67.2517 16.7227 68.041 17.448C68.8517 18.1733 69.257 19.1653 69.257 20.424C69.257 21.3413 68.969 22.1733 68.393 22.92C67.817 23.6667 67.0383 24.2533 66.057 24.68C65.097 25.1067 63.9983 25.32 62.761 25.32ZM79.5025 25.288C77.9878 25.288 76.6118 24.9253 75.3745 24.2C74.1372 23.4533 73.1558 22.4507 72.4305 21.192C71.7052 19.9333 71.3425 18.5253 71.3425 16.968C71.3425 15.4107 71.7052 14.0133 72.4305 12.776C73.1558 11.5173 74.1372 10.5147 75.3745 9.768C76.6118 9.02133 77.9878 8.648 79.5025 8.648C80.6758 8.648 81.8065 8.872 82.8945 9.32C83.9825 9.74667 84.9425 10.3653 85.7745 11.176L84.2705 12.904C83.6305 12.2213 82.8945 11.7093 82.0625 11.368C81.2518 11.0053 80.4092 10.824 79.5345 10.824C78.4465 10.824 77.4545 11.1013 76.5585 11.656C75.6838 12.1893 74.9798 12.9253 74.4465 13.864C73.9345 14.7813 73.6785 15.816 73.6785 16.968C73.6785 18.12 73.9345 19.1653 74.4465 20.104C74.9798 21.0427 75.6945 21.7893 76.5905 22.344C77.4865 22.8773 78.4785 23.144 79.5665 23.144C80.4412 23.144 81.2625 22.9733 82.0305 22.632C82.8198 22.2907 83.5558 21.7893 84.2385 21.128L85.7105 22.728C84.8572 23.5387 83.8972 24.168 82.8305 24.616C81.7638 25.064 80.6545 25.288 79.5025 25.288Z" fill="#495E57"/>
<path d="M88.4848 25V2.6H93.1248V20.904H105.381V25H88.4848ZM108.291 25V8.328H112.675V25H108.291ZM110.467 6.344C109.784 6.344 109.197 6.09867 108.707 5.608C108.216 5.11733 107.971 4.53067 107.971 3.848C107.971 3.144 108.216 2.55733 108.707 2.088C109.197 1.59733 109.784 1.352 110.467 1.352C111.171 1.352 111.757 1.59733 112.227 2.088C112.717 2.55733 112.963 3.144 112.963 3.848C112.963 4.53067 112.717 5.11733 112.227 5.608C111.757 6.09867 111.171 6.344 110.467 6.344ZM118.663 25V11.976H114.951V8.328H118.663V6.728C118.663 4.85067 119.207 3.42133 120.295 2.44C121.383 1.43733 122.951 0.935999 124.999 0.935999C125.447 0.935999 125.906 0.957332 126.375 0.999998C126.844 1.04267 127.25 1.11733 127.591 1.224V4.904C127.186 4.81867 126.834 4.75467 126.535 4.712C126.236 4.66933 125.906 4.648 125.543 4.648C124.711 4.648 124.082 4.82933 123.655 5.192C123.25 5.53333 123.047 6.07733 123.047 6.824V8.328H127.591V11.976H123.047V25H118.663ZM137.357 25.32C135.693 25.32 134.178 24.936 132.813 24.168C131.469 23.4 130.402 22.3653 129.613 21.064C128.823 19.7627 128.429 18.3013 128.429 16.68C128.429 15.0587 128.802 13.5973 129.549 12.296C130.317 10.9947 131.351 9.96 132.653 9.192C133.954 8.424 135.405 8.04 137.005 8.04C138.605 8.04 140.023 8.43467 141.261 9.224C142.498 10.0133 143.469 11.08 144.173 12.424C144.898 13.768 145.261 15.2933 145.261 17V18.152H132.909C133.101 18.8133 133.41 19.4107 133.837 19.944C134.285 20.4773 134.829 20.8933 135.469 21.192C136.13 21.4907 136.834 21.64 137.581 21.64C138.327 21.64 139.01 21.5227 139.629 21.288C140.269 21.0533 140.813 20.7227 141.261 20.296L144.141 22.92C143.117 23.752 142.061 24.36 140.973 24.744C139.906 25.128 138.701 25.32 137.357 25.32ZM132.845 15.016H140.941C140.791 14.3547 140.514 13.7787 140.109 13.288C139.725 12.776 139.255 12.3813 138.701 12.104C138.167 11.8053 137.57 11.656 136.909 11.656C136.226 11.656 135.607 11.7947 135.053 12.072C134.498 12.3493 134.029 12.744 133.645 13.256C133.282 13.7467 133.015 14.3333 132.845 15.016Z" fill="#F4CE14"/>
</svg>
